{"glyphs":{":":{"x_min":0,"x_max":240,"ha":240,"o":"m 123 111 q 148 111 166 93 q 184 74 184 49 q 184 32 176 18 q 167 3 153 -5 q 139 -13 123 -13 q 98 -13 80 5 q 63 23 63 49 q 63 75 80 93 q 97 111 123 111 z m 133 8 q 122 19 117 28 q 112 36 112 51 q 112 67 117 76 q 122 84 133 93 q 129 94 121 94 q 105 94 92 81 q 79 68 79 50 q 79 32 92 20 q 104 7 120 7 q 128 7 133 8 z m 123 421 q 139 421 153 413 q 167 406 176 392 q 184 378 184 362 q 184 345 176 331 q 167 317 153 309 q 139 301 123 301 q 98 301 80 319 q 63 336 63 362 q 63 387 81 404 q 98 421 123 421 z m 133 319 q 122 330 117 339 q 112 347 112 361 q 112 375 117 384 q 122 393 133 402 q 125 404 121 404 q 105 404 92 391 q 79 378 79 360 q 79 343 92 330 q 105 318 120 318 q 128 318 133 319 z"},"$":{"x_min":0,"x_max":510,"ha":510,"o":"m 225 704 l 281 704 l 281 676 q 323 673 356 661 q 389 648 410 631 q 432 613 443 592 q 454 571 454 550 q 454 531 441 516 q 427 502 408 502 q 391 502 376 514 q 362 526 359 542 q 351 585 347 600 q 343 614 328 628 q 313 641 281 646 l 281 405 q 330 377 366 350 q 402 323 425 296 q 448 270 460 240 q 472 210 472 179 q 472 134 452 96 q 431 58 388 30 q 346 3 281 -10 l 281 -108 l 225 -108 l 225 -10 q 140 -7 90 31 q 40 69 40 120 q 40 143 54 156 q 68 170 88 170 q 106 170 117 162 q 128 154 135 141 q 143 128 150 105 q 158 82 163 62 q 167 50 183 37 q 200 23 225 19 l 225 298 q 136 349 94 398 q 53 448 53 507 q 53 548 73 584 q 93 620 132 645 q 170 669 225 676 z m 130 24 q 115 40 105 52 q 96 63 90 77 q 83 91 83 105 q 83 118 93 127 q 103 137 120 135 q 105 153 88 153 q 74 153 65 143 q 56 134 56 119 q 56 98 66 81 q 76 63 92 50 q 108 37 130 24 z m 281 264 l 281 21 q 311 26 334 40 q 356 55 369 77 q 381 100 381 127 q 381 170 356 200 q 331 231 281 264 z m 353 35 q 388 60 405 85 q 422 110 422 147 q 422 182 408 208 q 394 234 365 259 q 337 284 299 308 q 261 333 182 382 q 141 408 118 446 q 94 484 94 525 q 94 548 101 568 q 107 587 118 602 q 128 617 146 635 q 110 612 90 581 q 69 551 69 508 q 69 461 94 424 q 120 388 169 353 q 219 317 316 258 q 341 242 359 221 q 377 200 387 175 q 397 150 397 126 q 397 74 353 35 z m 225 441 l 225 646 q 181 637 158 614 q 135 590 135 557 q 135 524 156 498 q 177 472 225 441 z m 349 625 q 361 605 368 573 q 374 542 379 530 q 385 519 406 519 q 435 519 439 549 q 438 548 432 546 q 427 544 423 544 q 410 544 403 551 q 396 558 387 577 q 378 596 371 607 q 363 618 349 625 z"},"?":{"x_min":0,"x_max":323,"ha":323,"o":"m 127 706 q 159 706 191 690 q 223 675 250 644 q 276 612 291 569 q 306 526 306 473 q 306 390 262 348 q 217 305 132 305 l 132 177 l 103 177 l 103 416 q 177 419 197 427 q 234 439 254 464 q 274 488 274 521 q 274 561 247 586 q 220 612 183 612 q 172 612 149 609 q 127 607 120 607 q 94 607 78 622 q 63 637 63 655 q 63 675 80 691 q 98 706 127 706 z m 132 399 l 132 366 l 136 366 q 205 366 246 400 q 288 434 289 495 q 257 403 132 399 z m 168 627 q 111 638 111 664 q 111 673 116 678 q 122 683 136 689 q 133 689 131 690 q 128 690 124 690 q 106 690 93 680 q 79 670 79 654 q 79 640 92 632 q 105 624 125 624 q 130 624 141 625 q 151 626 168 627 z m 119 113 q 135 113 149 104 q 164 96 172 81 q 180 67 180 50 q 180 24 162 5 q 145 -13 119 -13 q 94 -13 76 5 q 59 23 59 50 q 59 76 76 94 q 93 113 119 113 z m 127 95 q 123 96 117 96 q 101 96 88 83 q 75 69 75 51 q 75 32 89 20 q 103 8 127 7 q 108 31 108 51 q 108 74 127 95 z"},"<":{"x_min":0,"x_max":570,"ha":570,"o":"m 553 90 l 20 308 l 20 348 l 553 568 l 553 500 l 141 328 l 553 159 z"},"'":{"x_min":0,"x_max":240,"ha":240,"o":"m 58 386 l 58 418 q 86 432 106 455 q 125 478 125 505 q 125 526 114 543 q 104 561 85 579 q 62 603 54 615 q 45 628 45 646 q 45 668 63 685 q 81 702 106 702 q 128 702 149 686 q 169 670 183 641 q 196 612 196 577 q 196 513 161 465 q 127 417 58 386 z m 129 460 q 158 498 158 536 q 158 566 145 583 q 105 630 98 639 q 92 647 92 655 q 92 674 111 685 l 100 685 q 81 685 71 673 q 61 662 61 647 q 61 638 66 628 q 72 618 83 606 q 94 594 101 587 q 141 545 141 509 q 141 493 129 460 z"},"=":{"x_min":0,"x_max":570,"ha":570,"o":"m 20 441 l 554 441 l 554 378 l 20 378 z m 20 282 l 554 282 l 554 218 l 20 218 z"},"a":{"x_min":0,"x_max":448,"ha":448,"o":"m 142 378 q 142 376 148 364 q 155 352 155 341 q 155 320 137 303 q 120 287 94 287 q 69 287 55 300 q 40 313 40 330 q 40 355 65 380 q 89 404 133 420 q 176 435 228 435 q 266 435 299 422 q 332 409 352 382 q 371 355 371 317 l 371 69 q 371 39 388 39 q 398 39 413 55 l 431 34 q 407 10 387 -2 q 367 -14 339 -14 q 307 -14 289 0 q 271 15 263 45 q 196 -13 130 -13 q 83 -13 55 11 q 28 36 28 73 q 28 107 45 131 q 62 154 89 173 q 117 191 170 219 q 224 247 259 267 l 259 341 q 259 374 244 391 q 229 408 198 408 q 172 408 157 399 q 142 389 142 378 z m 275 309 l 275 116 q 275 59 287 31 q 299 3 335 3 q 351 3 361 7 q 332 11 319 30 q 307 49 307 90 l 307 314 q 307 365 293 384 q 278 403 243 407 q 262 397 269 379 q 275 360 275 309 z m 259 77 l 259 234 q 196 199 172 170 q 147 142 147 102 q 147 75 162 61 q 176 46 196 46 q 227 46 259 77 z m 173 10 q 128 10 102 28 q 75 46 75 80 q 75 105 88 127 q 101 149 127 177 q 87 154 66 130 q 44 106 44 73 q 44 43 70 24 q 96 4 127 4 q 157 4 173 10 z m 127 318 q 109 316 100 325 q 91 333 91 344 q 91 359 99 371 q 107 383 128 406 q 93 388 75 371 q 56 353 56 331 q 56 321 66 313 q 76 304 90 304 q 113 304 127 318 z"},"L":{"x_min":0,"x_max":698,"ha":698,"o":"m 30 662 l 30 689 l 369 689 l 369 662 l 354 662 q 316 662 296 655 q 275 648 267 630 q 259 612 259 578 l 259 100 q 259 72 268 57 q 278 42 303 34 q 328 27 373 27 q 412 27 444 33 q 476 40 508 56 q 540 72 573 102 q 607 131 641 176 l 686 176 l 621 0 l 30 0 l 30 27 l 36 27 q 80 27 101 35 q 122 43 130 60 q 137 78 137 109 l 137 571 q 137 607 131 626 q 124 645 101 653 q 78 662 30 662 z m 153 587 l 153 87 q 153 63 144 50 q 136 37 118 27 q 120 27 126 26 q 133 25 135 25 q 184 25 184 96 l 184 565 q 184 614 177 638 q 169 662 133 662 l 118 662 q 138 650 146 637 q 153 623 153 587 z m 484 27 l 573 27 l 615 123 q 587 90 556 67 q 524 43 484 27 z"},"3":{"x_min":0,"x_max":510,"ha":510,"o":"m 444 225 q 444 167 412 112 q 380 56 323 21 q 266 -13 195 -13 q 154 -13 123 2 q 91 17 74 39 q 56 61 56 83 q 56 102 71 117 q 86 133 106 133 q 121 133 133 125 q 146 117 153 103 q 171 69 180 54 q 189 40 203 30 q 216 19 234 19 q 275 19 305 59 q 335 99 335 167 q 335 211 318 248 q 301 284 270 309 q 238 335 195 349 q 207 357 217 366 q 228 375 238 384 q 249 394 262 407 q 274 420 280 426 q 295 441 306 468 q 316 495 316 521 q 316 565 286 593 q 257 621 218 621 q 188 621 155 601 q 122 580 89 540 l 69 557 q 97 602 134 634 q 170 667 212 685 q 253 702 296 702 q 332 702 361 686 q 390 670 407 642 q 424 615 424 582 q 424 557 411 530 q 398 503 374 475 q 349 447 310 416 q 372 393 408 340 q 444 288 444 225 z m 165 624 q 172 627 180 630 q 188 633 198 636 q 208 638 220 638 q 268 638 300 604 q 332 569 332 520 q 332 487 311 444 q 356 494 356 549 q 356 595 325 626 q 295 657 248 657 q 224 657 207 649 q 190 642 165 624 z m 239 364 l 227 353 q 351 292 351 167 q 351 135 345 111 q 338 87 326 61 q 353 89 366 119 q 379 150 379 189 q 379 230 363 264 q 347 299 325 322 q 303 345 282 358 q 262 371 253 371 q 246 371 239 364 z m 137 99 q 117 116 105 116 q 93 116 83 106 q 72 96 72 80 q 72 62 84 47 q 96 33 123 15 q 115 30 111 36 q 107 43 104 51 q 102 59 102 68 q 102 99 137 99 z"},";":{"x_min":0,"x_max":240,"ha":240,"o":"m 48 -214 l 48 -187 q 117 -147 117 -88 q 117 -66 109 -51 q 101 -35 84 -12 q 67 10 59 25 q 52 40 52 59 q 52 82 68 98 q 85 114 108 114 q 133 114 150 97 q 168 80 177 51 q 187 22 187 -8 q 187 -50 169 -91 q 151 -132 119 -165 q 86 -198 48 -214 z m 126 90 q 111 97 105 97 q 89 97 78 86 q 68 75 68 58 q 68 40 74 29 q 81 19 98 -5 q 116 -29 125 -46 q 133 -63 133 -88 q 133 -109 117 -141 q 155 -100 155 -57 q 155 -36 147 -20 q 140 -4 129 9 q 119 22 109 36 q 99 50 99 62 q 99 73 106 79 q 112 85 126 90 z m 122 421 q 138 421 152 413 q 167 406 175 392 q 183 378 183 362 q 183 345 175 331 q 167 317 153 309 q 139 301 122 301 q 97 301 79 318 q 61 336 61 362 q 61 378 69 392 q 78 406 92 413 q 106 421 122 421 z m 132 319 q 121 330 116 339 q 111 347 111 361 q 111 375 116 384 q 121 393 132 402 q 122 404 121 404 q 105 404 93 391 q 80 378 80 360 q 80 343 92 331 q 104 318 120 318 q 127 318 132 319 z"},"J":{"x_min":0,"x_max":417,"ha":417,"o":"m 69 662 l 69 689 l 391 689 l 391 662 q 349 660 331 656 q 313 651 304 632 q 294 612 294 568 l 294 -46 q 294 -104 273 -148 q 252 -192 213 -216 q 174 -240 123 -240 q 75 -240 45 -214 q 14 -187 14 -151 q 14 -129 27 -112 q 41 -94 63 -94 q 86 -94 101 -113 q 117 -131 118 -160 q 119 -185 123 -199 q 127 -213 141 -213 q 171 -213 171 -142 l 171 553 q 171 593 167 613 q 163 634 152 643 q 142 652 124 656 q 105 660 69 662 z m 219 -111 l 219 562 q 219 620 210 641 q 200 662 163 662 l 153 662 q 173 653 180 636 q 187 620 187 590 l 187 -139 q 187 -181 171 -213 q 201 -200 210 -177 q 219 -154 219 -111 z m 98 -142 q 86 -111 64 -111 q 49 -111 40 -123 q 30 -135 30 -152 q 30 -174 47 -193 q 65 -212 98 -222 q 75 -198 67 -187 q 59 -176 59 -159 q 59 -143 72 -138 q 85 -133 98 -142 z"},"V":{"x_min":0,"x_max":740,"ha":740,"o":"m 499 689 l 724 689 l 724 662 q 686 660 653 619 q 620 578 587 495 l 385 -13 l 358 -13 l 109 580 q 87 634 73 647 q 58 660 15 662 l 15 689 l 309 689 l 309 662 l 301 662 q 268 662 250 650 q 233 639 233 618 q 233 620 236 602 q 239 583 243 574 l 421 149 l 549 470 q 576 537 576 579 q 576 619 556 640 q 536 662 499 662 z m 645 662 l 549 662 q 588 640 591 585 q 612 637 645 662 z m 124 587 l 364 13 q 378 40 378 51 q 378 62 364 93 l 159 583 q 146 615 136 631 q 126 648 111 656 q 96 664 69 666 q 87 659 98 643 q 108 626 124 587 z"},"\"":{"x_min":0,"x_max":437,"ha":437,"o":"m 58 386 l 58 418 q 86 431 106 455 q 126 479 126 505 q 126 526 115 543 q 105 559 85 578 q 62 602 54 614 q 45 626 45 646 q 45 668 63 685 q 81 702 106 702 q 128 702 149 686 q 169 670 183 641 q 196 612 196 577 q 196 513 161 465 q 127 417 58 386 z m 129 460 q 158 498 158 536 q 158 566 145 583 q 105 630 98 639 q 92 647 92 655 q 92 674 111 685 l 100 685 q 81 685 71 673 q 61 662 61 647 q 61 637 66 627 q 71 618 80 609 q 88 600 101 587 q 120 568 131 550 q 142 532 142 509 q 142 500 140 492 q 138 484 134 474 q 130 464 129 460 z m 256 386 l 256 418 q 285 432 304 455 q 323 479 323 505 q 323 527 312 544 q 302 561 283 578 q 261 602 252 614 q 243 626 243 646 q 243 668 261 685 q 280 702 304 702 q 325 702 346 686 q 367 670 381 641 q 394 612 394 577 q 394 446 256 386 z m 327 460 q 356 495 356 536 q 356 567 343 583 q 319 611 309 623 q 298 636 294 642 q 290 649 290 655 q 290 664 293 669 q 296 675 301 679 q 306 683 309 685 l 298 685 q 279 685 269 673 q 259 662 259 647 q 259 640 261 633 q 264 626 272 615 q 281 605 286 600 q 291 595 298 588 q 317 569 328 551 q 339 533 339 509 q 339 489 327 460 z"},"7":{"x_min":0,"x_max":510,"ha":510,"o":"m 399 554 l 180 554 q 141 554 120 548 q 100 542 87 526 q 74 510 58 476 l 30 476 l 111 702 l 138 702 q 143 676 162 669 q 180 662 230 662 l 479 662 q 457 615 440 576 q 424 538 406 489 q 388 440 379 414 q 370 387 352 336 q 318 236 293 164 q 268 91 253 56 q 238 21 224 4 q 209 -13 191 -13 q 177 -13 168 -3 q 160 7 160 20 q 160 34 168 51 q 176 69 209 138 q 245 211 278 283 q 311 354 334 407 q 358 460 375 499 q 391 537 399 554 z m 163 571 l 359 571 q 381 571 391 572 q 400 573 407 580 q 415 586 423 602 l 183 602 q 179 603 175 603 q 171 603 167 603 q 134 603 116 591 q 99 580 85 551 q 122 571 163 571 z"},"S":{"x_min":0,"x_max":604,"ha":604,"o":"m 64 248 l 96 248 q 123 171 161 118 q 199 66 243 41 q 288 15 337 15 q 398 15 441 53 q 485 91 485 151 q 485 207 456 238 q 427 269 387 281 q 347 293 282 304 q 216 315 189 324 q 146 339 117 365 q 87 390 72 426 q 56 462 56 503 q 56 542 70 578 q 83 614 108 642 q 133 670 169 686 q 205 702 249 702 q 281 702 327 693 q 373 684 394 684 q 420 684 444 696 l 481 696 l 502 495 l 468 495 q 420 585 367 632 q 315 679 244 679 q 209 679 179 663 q 148 646 130 618 q 112 589 112 554 q 112 505 145 479 q 178 454 243 440 q 309 427 360 418 q 412 409 442 394 q 498 367 528 318 q 559 270 559 209 q 559 150 531 100 q 502 49 451 18 q 400 -12 337 -12 q 301 -12 283 -7 q 265 -1 221 14 q 177 30 154 30 q 115 30 92 0 l 64 0 z m 448 564 l 432 657 q 416 652 400 652 q 382 652 362 657 q 381 645 396 629 q 411 613 427 591 q 443 569 448 564 z m 80 157 l 80 27 q 94 45 106 51 q 118 56 143 55 q 127 74 120 83 q 113 92 102 110 q 92 128 80 157 z m 80 560 q 72 523 72 500 q 72 474 81 448 q 89 422 106 399 q 124 375 145 361 q 174 341 208 333 q 243 325 310 314 q 376 303 402 293 q 449 276 475 241 q 501 206 501 158 q 501 123 481 84 q 521 125 521 181 q 521 239 491 272 q 462 305 418 321 q 375 336 299 350 q 223 363 221 364 q 152 382 116 426 q 80 471 80 529 q 80 540 80 547 q 80 554 80 560 z"},"}":{"x_min":0,"x_max":333,"ha":333,"o":"m 209 350 q 209 304 235 275 q 262 246 310 240 l 310 207 q 262 201 235 172 q 209 143 209 99 q 209 82 214 53 q 219 25 224 3 q 229 -20 232 -38 q 236 -56 236 -75 q 236 -114 213 -151 q 191 -189 150 -213 q 123 -229 92 -234 q 62 -240 23 -241 l 23 -216 q 57 -211 79 -197 q 102 -182 113 -161 q 123 -140 123 -114 q 123 -82 111 -24 q 99 35 99 57 q 99 76 102 87 q 105 98 112 110 q 119 123 127 134 q 135 145 148 162 q 166 186 203 201 q 241 215 263 220 q 263 220 262 221 q 261 223 259 223 q 210 238 174 264 q 138 290 118 323 q 99 355 99 389 q 99 407 102 424 q 105 441 111 469 q 117 497 120 519 q 123 542 123 562 q 123 601 98 629 q 73 656 23 663 l 23 687 q 79 687 115 675 q 167 658 202 614 q 236 570 236 522 q 236 503 233 486 q 229 469 222 432 q 214 396 211 381 q 209 367 209 350 z m 148 48 q 148 89 168 126 q 188 163 226 190 q 173 173 144 135 q 115 96 115 47 q 115 33 120 9 q 125 -15 130 -35 q 135 -56 138 -74 q 142 -93 142 -115 q 142 -150 126 -176 q 110 -201 78 -221 q 125 -203 150 -170 q 175 -137 175 -97 q 175 -81 171 -65 q 167 -50 163 -31 q 158 -13 153 10 q 148 34 148 48 z m 175 544 q 175 585 150 617 q 126 649 78 667 q 110 648 126 623 q 142 597 142 561 q 142 540 139 523 q 135 506 130 485 q 125 464 120 439 q 115 414 115 398 q 115 352 144 313 q 173 273 226 256 q 188 282 168 320 q 148 357 148 398 q 148 412 150 425 q 153 438 160 468 q 168 499 171 514 q 175 528 175 544 z"},"Z":{"x_min":0,"x_max":667,"ha":667,"o":"m 604 239 l 643 239 l 604 0 l 35 0 l 35 20 l 483 662 l 326 662 q 278 662 234 644 q 191 626 161 601 q 131 576 117 555 q 90 513 81 497 l 47 497 l 81 689 l 637 689 l 637 670 l 187 27 l 338 27 q 386 27 419 34 q 452 42 493 77 q 515 95 536 122 q 558 148 576 180 q 594 212 604 239 z m 443 27 l 538 27 l 576 152 q 547 106 518 78 q 490 49 443 27 z m 503 662 l 59 27 q 84 26 95 33 q 106 40 133 78 l 500 603 q 522 635 522 644 q 522 659 503 662 z m 177 662 l 94 662 l 78 579 q 99 609 122 627 q 145 646 177 662 z"},"x":{"x_min":0,"x_max":500,"ha":500,"o":"m 490 0 l 247 0 l 247 27 q 287 32 287 57 q 287 68 267 96 l 220 159 l 190 122 q 180 110 173 99 q 167 87 167 70 q 167 53 180 42 q 192 30 216 27 l 216 0 l 15 0 l 15 27 q 37 30 61 44 q 85 58 111 80 q 136 102 164 135 l 203 182 l 75 355 q 54 383 41 391 q 27 398 10 402 l 10 427 l 247 427 l 247 402 q 212 399 212 377 q 212 361 230 336 l 278 271 l 301 299 q 330 333 330 365 q 330 381 320 391 q 311 400 292 402 l 292 427 l 475 427 l 475 402 q 447 397 424 383 q 401 368 382 348 q 363 329 338 299 l 295 248 l 409 92 q 411 90 420 77 q 429 63 439 53 q 449 43 461 37 q 473 31 490 27 z m 97 355 l 280 106 q 303 74 303 56 q 303 41 290 27 l 302 27 q 315 27 326 37 q 338 47 338 60 q 338 81 306 125 l 137 355 q 119 379 109 388 q 100 397 87 400 q 75 402 54 402 q 62 396 70 388 q 77 381 83 375 q 88 368 92 363 q 96 357 97 355 z m 407 400 l 332 400 q 346 384 346 365 q 346 355 343 346 q 377 382 407 400 z m 64 27 l 154 27 q 143 36 139 44 q 135 51 135 65 q 135 75 140 88 q 104 47 64 27 z"},")":{"x_min":0,"x_max":323,"ha":323,"o":"m 41 -241 l 24 -221 q 65 -175 96 -107 q 127 -40 144 44 q 161 127 161 223 q 161 286 156 340 q 150 394 141 439 q 131 485 117 527 q 102 568 88 594 q 66 634 24 685 l 46 703 q 132 645 177 581 q 202 547 222 506 q 242 465 256 420 q 271 375 277 331 q 284 286 284 238 q 284 136 253 41 q 223 -55 167 -127 q 112 -200 41 -241 z m 76 643 q 105 604 129 542 q 152 480 164 399 q 177 318 177 221 q 177 134 165 64 q 154 -5 129 -67 q 104 -129 65 -191 q 103 -155 130 -112 q 157 -68 174 -17 q 191 34 200 96 q 209 158 209 234 q 209 333 193 412 q 178 492 147 550 q 117 608 76 643 z"},"&":{"x_min":0,"x_max":729,"ha":729,"o":"m 202 -13 q 153 -13 114 10 q 75 33 53 72 q 31 111 31 154 q 31 185 42 212 q 52 239 72 263 q 91 287 122 316 q 164 356 206 384 q 126 471 126 521 q 126 545 146 576 q 165 606 196 636 q 228 666 262 684 q 297 702 327 702 q 354 702 375 691 q 396 680 412 661 q 428 643 436 622 q 445 602 445 585 q 445 560 428 536 q 411 512 389 494 q 368 477 316 438 q 374 374 414 319 q 454 264 484 218 q 520 265 539 301 q 557 337 557 360 q 557 384 537 400 q 518 417 484 417 l 484 444 l 719 444 l 719 417 q 683 412 651 385 q 619 357 588 314 q 556 271 503 192 l 533 146 q 564 99 582 82 q 600 66 621 66 q 659 66 691 125 l 715 114 q 697 70 674 42 q 652 15 625 1 q 598 -13 568 -13 q 530 -13 492 17 q 455 46 425 97 q 374 45 314 16 q 254 -13 202 -13 z m 640 417 l 539 417 q 573 400 573 361 q 573 358 572 354 q 571 350 571 347 q 599 392 640 417 z m 369 523 q 389 546 389 571 q 389 592 374 613 q 359 634 337 648 q 315 662 296 662 q 283 662 259 652 q 289 650 315 629 q 341 607 356 581 q 372 554 372 541 q 372 537 372 535 q 371 533 371 530 q 370 528 369 523 z m 297 458 q 356 501 356 534 q 356 551 341 576 q 326 601 303 619 q 281 637 261 637 q 238 637 221 619 q 203 601 203 583 q 203 569 210 556 q 217 542 233 524 q 250 505 264 491 q 279 477 297 458 z m 651 37 q 624 26 602 26 q 565 26 536 48 q 506 69 486 98 q 465 126 408 209 q 365 271 328 316 q 292 360 244 415 q 196 469 179 496 q 161 524 161 549 q 161 559 172 586 q 142 549 142 520 q 142 497 160 470 q 177 443 225 388 q 272 334 309 290 q 346 246 385 186 q 415 142 436 110 q 457 78 478 54 q 498 30 521 17 q 545 4 572 4 q 613 4 651 37 z m 408 121 q 398 137 374 173 q 349 209 330 235 q 312 261 283 296 q 254 332 225 362 q 177 321 156 288 q 135 255 135 217 q 135 178 156 141 q 177 104 212 82 q 248 59 286 59 q 354 59 408 121 z m 241 7 q 167 17 120 63 q 74 110 74 179 q 74 207 80 224 q 86 241 103 274 q 76 246 62 219 q 47 192 47 155 q 47 112 69 77 q 91 42 127 23 q 163 4 200 4 q 217 4 241 7 z"},"_":{"x_min":0,"x_max":500,"ha":500,"o":"m -6 -212 l -6 -150 l 506 -150 l 506 -212 z"},"v":{"x_min":0,"x_max":500,"ha":500,"o":"m 321 398 l 321 427 l 489 427 l 489 398 q 458 384 438 361 q 418 337 399 291 l 267 -13 l 228 -13 l 83 328 q 66 367 51 382 q 36 397 10 398 l 10 427 l 255 427 l 255 400 l 237 400 q 219 400 206 389 q 194 379 194 365 q 194 356 210 316 l 294 117 l 348 240 q 372 296 372 325 q 372 353 359 372 q 346 391 321 398 z m 437 400 l 357 400 q 386 379 386 333 q 408 379 437 400 z m 238 5 l 245 6 l 255 25 q 257 27 257 38 q 257 45 245 69 l 133 335 q 119 368 104 384 q 90 400 66 400 l 55 400 q 69 391 79 374 q 88 356 96 338 z"},"O":{"x_min":0,"x_max":813,"ha":813,"o":"m 43 347 q 43 391 51 431 q 60 470 76 506 q 92 542 116 573 q 141 604 170 628 q 202 654 238 670 q 275 687 318 695 q 360 702 409 702 q 491 702 559 674 q 627 646 675 597 q 722 548 748 484 q 773 419 773 348 q 773 271 745 205 q 717 139 665 90 q 614 41 544 14 q 475 -13 395 -13 q 320 -13 254 13 q 189 40 142 88 q 95 136 69 203 q 43 270 43 347 z m 178 399 q 178 314 196 243 q 213 171 246 120 q 279 68 323 41 q 368 14 420 14 q 464 14 503 33 q 542 52 572 89 q 602 127 618 182 q 635 238 635 311 q 635 391 616 459 q 597 527 564 575 q 530 623 485 649 q 439 675 387 675 q 342 675 303 655 q 264 636 237 599 q 209 563 194 512 q 178 461 178 399 z m 224 648 q 143 598 101 521 q 59 443 59 346 q 59 266 86 199 q 114 132 167 85 q 220 37 299 11 q 203 60 146 146 q 90 231 90 355 q 90 417 105 467 q 120 517 150 561 q 180 605 224 648 z m 479 668 q 534 639 573 587 q 612 536 631 464 q 651 392 651 306 q 651 225 629 165 q 606 105 566 59 q 606 89 632 128 q 658 166 670 215 q 682 263 682 324 q 682 412 658 485 q 634 558 588 606 q 542 654 479 668 z"},"(":{"x_min":0,"x_max":323,"ha":323,"o":"m 299 -221 l 281 -241 q 235 -216 192 -171 q 149 -127 115 -66 q 80 -5 60 69 q 39 143 39 221 q 39 275 47 324 q 54 373 69 421 q 84 468 104 508 q 122 542 142 571 q 162 600 183 622 q 205 644 225 660 q 245 677 281 702 l 299 683 q 243 632 202 513 q 160 395 160 239 q 160 168 169 103 q 178 38 196 -21 q 213 -80 239 -131 q 266 -181 299 -221 z m 248 658 q 200 621 165 573 q 129 524 104 467 q 79 409 67 348 q 55 286 55 220 q 55 158 68 100 q 81 42 106 -14 q 132 -69 167 -116 q 203 -163 248 -202 q 203 -143 169 -85 q 135 -28 112 52 q 88 131 88 224 q 88 338 130 455 q 172 571 248 658 z"},"C":{"x_min":0,"x_max":729,"ha":729,"o":"m 642 698 l 682 698 l 682 482 l 652 482 q 629 530 602 566 q 576 603 546 627 q 516 651 483 663 q 451 675 413 675 q 362 675 321 652 q 279 629 250 587 q 221 545 204 484 q 188 424 188 355 q 188 259 220 184 q 252 109 310 68 q 368 26 442 26 q 487 26 530 41 q 572 56 610 86 q 649 117 682 162 l 711 146 q 656 66 579 26 q 501 -14 401 -14 q 323 -14 257 13 q 191 41 143 90 q 95 139 70 204 q 44 269 44 341 q 44 419 72 486 q 100 553 149 602 q 198 650 262 676 q 327 702 400 702 q 427 702 451 698 q 475 694 507 685 q 540 676 552 674 q 563 671 578 671 q 617 671 642 698 z m 623 575 l 620 658 q 597 648 572 648 q 560 648 549 650 q 574 631 590 613 q 607 595 623 575 z m 301 677 q 225 648 177 608 q 149 584 127 555 q 106 526 91 493 q 76 459 68 421 q 60 383 60 346 q 60 258 96 184 q 132 109 204 60 q 276 11 375 0 q 310 17 257 50 q 203 83 166 130 q 128 176 110 231 q 91 285 91 344 q 91 393 107 447 q 123 500 152 542 q 185 589 219 618 q 254 647 301 677 z"},"W":{"x_min":0,"x_max":1042,"ha":1042,"o":"m 809 689 l 1029 689 l 1029 662 q 993 646 966 608 q 939 570 914 499 l 736 -13 l 708 -13 l 520 524 l 333 -13 l 307 -13 l 121 524 q 96 596 86 618 q 76 641 60 651 q 44 662 13 662 l 13 689 l 301 689 l 301 662 q 298 663 296 663 q 293 663 289 663 q 223 663 223 623 q 223 602 239 554 l 370 176 l 505 562 q 493 601 481 621 q 470 642 458 650 q 445 658 437 659 q 428 661 401 662 l 401 689 l 697 689 l 697 662 q 662 661 641 654 q 621 647 621 625 q 621 602 644 538 l 771 176 l 875 475 q 885 501 891 526 q 898 551 898 572 q 898 616 876 637 q 854 658 809 662 z m 966 662 l 869 662 q 893 647 902 629 q 911 611 912 584 q 922 609 935 628 q 948 648 966 662 z m 521 570 l 715 17 q 729 46 729 64 q 729 75 719 103 l 550 584 q 537 620 530 633 q 522 646 509 654 q 495 662 468 662 q 497 639 521 570 z m 124 562 l 314 14 q 317 21 320 27 q 323 33 325 41 q 328 50 328 56 q 328 74 320 95 l 158 562 q 141 611 132 630 q 122 649 108 657 q 94 664 69 662 q 86 650 98 628 q 109 606 124 562 z"},"A":{"x_min":0,"x_max":729,"ha":729,"o":"m 488 120 l 433 260 l 202 260 l 170 177 q 157 145 157 111 q 157 78 178 53 q 199 28 236 27 l 236 0 l 10 0 l 10 27 q 85 38 132 157 l 301 590 q 288 613 273 621 q 258 629 230 632 l 230 656 l 347 696 l 392 696 l 618 119 q 638 70 657 53 q 677 36 717 27 l 717 0 l 427 0 l 427 27 q 464 31 483 39 q 502 46 502 69 q 502 88 488 120 z m 214 291 l 421 291 l 317 554 z m 532 138 l 358 580 q 345 613 332 627 q 318 641 294 641 q 280 641 271 639 q 294 630 306 613 q 318 597 329 569 l 502 127 q 518 88 518 66 q 518 52 513 45 q 507 39 491 27 l 502 27 q 525 27 537 39 q 550 51 550 68 q 550 92 532 138 z m 62 27 l 156 27 q 125 51 125 87 q 125 97 126 103 q 113 79 99 62 q 86 44 62 27 z"},"f":{"x_min":0,"x_max":292,"ha":292,"o":"m 77 70 l 77 393 l 8 393 l 8 427 l 77 427 l 77 493 q 77 557 100 604 q 123 651 165 677 q 208 702 264 702 q 298 702 323 692 q 347 682 359 665 q 371 648 371 628 q 371 605 355 588 q 339 570 316 570 q 294 570 280 587 q 265 604 265 623 q 266 628 266 632 q 266 635 266 642 q 266 657 257 666 q 248 675 234 675 q 213 675 201 655 q 189 634 189 596 l 189 427 l 280 427 l 280 393 l 189 393 l 189 77 q 189 58 194 47 q 200 36 214 31 q 228 27 251 27 l 267 27 l 267 0 l 12 0 l 12 27 q 44 28 61 37 q 77 46 77 70 z m 93 493 l 93 73 q 93 41 67 23 q 125 23 125 73 l 125 492 q 125 550 137 590 q 150 629 176 667 q 134 638 114 596 q 93 554 93 493 z m 267 673 q 280 658 281 642 q 282 633 283 622 q 284 612 287 604 q 290 596 297 592 q 304 587 316 587 q 340 587 353 613 q 341 609 337 609 q 319 609 309 628 q 295 656 291 662 q 286 668 267 673 z"},"Q":{"x_min":0,"x_max":813,"ha":813,"o":"m 679 -192 l 669 -192 q 609 -192 552 -170 q 496 -148 441 -107 q 387 -66 333 -8 q 251 4 185 51 q 119 98 81 176 q 43 253 43 347 q 43 391 51 431 q 60 470 76 506 q 92 542 116 573 q 141 604 170 628 q 202 654 238 670 q 275 687 318 695 q 360 702 409 702 q 491 702 559 674 q 627 646 675 597 q 722 548 748 484 q 773 419 773 348 q 773 265 740 193 q 706 121 641 69 q 576 18 486 -4 q 540 -40 582 -57 q 625 -75 668 -75 q 699 -75 717 -68 q 735 -60 764 -41 l 783 -53 z m 682 -145 l 664 -145 q 625 -145 580 -130 q 534 -114 488 -84 q 441 -54 404 -13 l 401 -13 q 380 -13 359 -11 q 403 -60 453 -96 q 502 -133 551 -152 q 599 -172 642 -172 q 658 -172 664 -167 q 671 -162 682 -145 z m 178 399 q 178 314 196 243 q 213 171 246 120 q 279 68 323 41 q 368 14 420 14 q 464 14 503 33 q 542 52 572 89 q 602 127 618 182 q 635 238 635 311 q 635 391 616 459 q 597 527 564 575 q 530 623 485 649 q 439 675 387 675 q 342 675 303 655 q 264 636 237 599 q 209 563 194 512 q 178 461 178 399 z m 224 648 q 143 598 101 521 q 59 443 59 346 q 59 266 86 199 q 114 132 167 85 q 220 37 299 11 q 90 121 90 355 q 90 417 105 467 q 120 517 150 561 q 180 605 224 648 z m 479 668 q 534 639 573 587 q 612 536 631 464 q 651 392 651 306 q 651 225 629 165 q 606 105 566 59 q 606 89 632 128 q 658 166 670 215 q 682 263 682 324 q 682 412 658 485 q 634 558 588 606 q 542 654 479 668 z"},"w":{"x_min":0,"x_max":760,"ha":760,"o":"m 648 276 l 528 -13 l 490 -13 l 380 229 l 279 -13 l 241 -13 l 86 324 q 68 365 53 381 q 39 397 12 399 l 12 427 l 233 427 l 233 399 q 196 397 196 369 q 196 361 199 351 q 202 340 206 332 q 209 323 215 312 l 305 119 l 364 262 l 337 318 q 321 353 306 370 q 292 388 267 399 l 267 427 l 507 427 l 507 399 q 480 399 465 392 q 449 385 449 361 q 449 348 453 338 q 457 328 470 297 l 553 119 l 606 249 q 610 259 616 272 q 622 285 626 302 q 631 318 631 337 q 631 360 618 377 q 604 395 580 399 l 580 427 l 748 427 l 748 399 q 692 384 648 276 z m 692 400 l 619 400 q 635 390 641 377 q 646 364 649 341 q 653 357 666 374 q 678 390 692 400 z m 355 317 l 497 9 l 503 9 q 512 23 512 35 q 512 51 507 64 q 501 77 492 95 l 392 312 q 373 354 361 370 q 350 387 336 393 q 322 399 297 399 q 316 387 329 367 q 341 348 355 317 z m 118 294 l 249 9 l 257 9 q 264 25 264 35 q 264 52 238 107 l 141 319 q 125 354 116 369 q 106 385 93 392 q 79 399 54 399 q 64 392 73 379 q 83 366 94 344 q 105 322 118 294 z"},"-":{"x_min":0,"x_max":375,"ha":375,"o":"m 52 261 l 323 261 l 323 167 l 52 167 z m 307 184 l 307 215 l 68 215 l 68 184 z"},"E":{"x_min":0,"x_max":698,"ha":698,"o":"m 253 341 l 253 126 q 253 90 258 71 q 263 51 277 41 q 291 32 316 29 q 342 27 386 27 q 440 27 483 43 q 525 60 563 92 q 601 124 646 177 l 685 177 l 624 0 l 23 0 l 23 27 q 66 28 89 34 q 112 41 121 56 q 131 72 131 100 l 131 583 q 131 617 122 633 q 113 648 92 654 q 71 660 23 662 l 23 689 l 600 689 l 659 533 l 624 533 q 596 569 555 598 q 514 627 464 645 q 413 662 357 662 q 312 662 290 653 q 268 643 260 626 q 253 609 253 581 l 253 368 l 351 368 q 479 368 481 486 l 515 486 l 515 227 l 485 227 q 479 287 451 314 q 424 341 367 341 z m 575 27 l 609 112 q 580 81 557 65 q 533 50 490 27 z m 475 309 l 475 405 q 456 372 406 357 q 433 350 448 339 q 464 329 475 309 z m 554 662 l 466 662 q 502 650 531 633 q 559 616 591 592 z m 147 579 l 147 107 q 147 71 139 55 q 130 38 114 27 q 154 27 166 48 q 178 69 178 115 l 178 588 q 178 629 164 643 q 150 656 114 657 q 132 647 139 631 q 147 615 147 579 z"},"s":{"x_min":0,"x_max":375,"ha":375,"o":"m 31 24 l 31 152 l 57 152 q 94 86 135 52 q 175 19 214 19 q 239 19 258 35 q 278 51 278 72 q 278 99 263 109 q 208 146 157 165 q 23 215 23 307 q 23 362 65 398 q 107 435 178 435 q 214 435 246 427 q 277 420 315 406 l 320 290 l 296 290 q 256 349 218 378 q 179 408 141 408 q 118 408 102 393 q 87 377 87 359 q 87 335 106 321 q 125 307 186 280 q 247 252 293 227 q 322 212 339 185 q 356 157 356 125 q 356 87 334 56 q 312 24 274 5 q 236 -13 188 -13 q 120 -13 31 24 z m 49 109 l 49 48 q 73 37 130 22 q 100 43 85 60 q 70 76 49 109 z m 288 47 q 301 59 308 69 q 314 79 314 96 q 314 148 238 179 q 169 208 130 229 q 90 251 73 274 q 55 297 55 332 q 55 353 67 379 q 54 363 47 348 q 39 333 39 310 q 39 264 72 235 q 105 206 171 177 q 236 147 265 128 q 294 109 294 76 q 294 64 288 47 z m 284 333 l 280 389 q 248 402 229 407 q 211 412 177 412 q 213 399 235 383 q 257 366 284 333 z"},">":{"x_min":0,"x_max":570,"ha":570,"o":"m 20 568 l 553 351 l 553 311 l 20 90 l 20 158 l 433 330 l 20 500 z"},"l":{"x_min":0,"x_max":271,"ha":271,"o":"m 84 76 l 84 539 q 84 576 72 597 q 61 618 18 634 l 18 653 l 177 705 l 196 705 l 196 94 q 196 56 204 42 q 213 27 248 27 l 261 27 l 261 0 l 18 0 l 18 27 l 30 27 q 59 27 71 39 q 84 51 84 76 z m 132 96 l 132 536 q 132 571 129 592 q 125 612 111 626 q 96 640 63 640 q 47 640 37 639 q 82 626 91 602 q 100 577 100 536 l 100 79 q 100 46 80 27 q 114 28 123 46 q 132 63 132 96 z"},"8":{"x_min":0,"x_max":510,"ha":510,"o":"m 60 522 q 60 569 85 611 q 110 653 155 677 q 199 702 254 702 q 308 702 351 679 q 394 657 417 619 q 440 582 440 540 q 440 505 426 479 q 412 453 385 431 q 358 410 322 391 q 393 345 433 298 q 474 250 474 179 q 474 127 445 83 q 415 39 364 13 q 312 -12 250 -12 q 190 -12 143 11 q 96 35 71 75 q 45 115 45 160 q 45 264 188 339 q 124 385 92 427 q 60 469 60 522 z m 297 410 q 324 428 340 445 q 356 461 365 485 q 375 510 375 543 q 375 584 359 614 q 343 644 314 659 q 286 675 252 675 q 206 675 173 650 q 140 625 140 583 q 140 558 150 536 q 161 515 180 496 q 199 477 223 459 q 248 442 297 410 z m 125 636 q 76 589 76 520 q 76 463 117 421 q 157 378 239 323 q 320 268 359 228 q 399 188 399 133 q 399 77 346 27 q 423 69 423 147 q 423 191 394 233 q 365 274 310 311 q 250 353 211 381 q 172 409 147 434 q 122 459 109 485 q 96 512 96 544 q 96 584 125 636 z m 212 321 q 167 293 142 257 q 117 221 117 160 q 117 93 156 54 q 195 15 256 15 q 290 15 319 30 q 348 44 365 70 q 383 96 383 129 q 383 163 368 189 q 354 215 331 237 q 308 258 276 278 q 245 299 212 321 z"},"\\":{"x_min":0,"x_max":278,"ha":278,"o":"m 1 677 l 62 677 l 281 -15 l 218 -15 z"},"e":{"x_min":0,"x_max":448,"ha":448,"o":"m 407 121 l 427 106 q 405 65 375 39 q 344 12 308 0 q 271 -13 232 -13 q 178 -13 132 13 q 86 39 59 87 q 32 136 32 198 q 32 247 49 290 q 65 333 94 366 q 123 398 161 417 q 200 435 243 435 q 287 435 327 417 q 367 398 390 366 q 407 343 415 318 q 422 293 427 259 l 132 259 q 134 208 149 173 q 165 138 189 116 q 214 95 242 85 q 270 76 295 76 q 356 76 407 121 z m 321 290 l 355 290 q 354 345 333 371 q 312 397 262 406 q 293 392 307 369 q 321 346 321 300 z m 135 290 l 305 290 l 305 306 q 305 334 295 357 q 285 379 267 391 q 249 403 226 403 q 189 403 163 370 q 137 337 135 290 z m 139 386 q 48 314 48 197 q 48 112 102 58 q 157 4 228 4 q 270 4 311 21 q 353 38 382 71 q 352 52 321 40 q 290 28 247 28 q 174 28 126 79 q 77 129 77 211 q 77 263 93 304 q 109 345 139 386 z"},"b":{"x_min":0,"x_max":552,"ha":552,"o":"m 6 653 l 168 706 l 188 706 l 188 390 q 229 412 260 424 q 292 435 331 435 q 371 435 406 420 q 440 404 466 377 q 491 350 505 311 q 519 271 519 225 q 519 178 504 135 q 490 92 461 59 q 433 25 392 6 q 352 -13 305 -13 q 241 -13 162 32 l 88 -11 l 75 -11 l 75 546 q 75 615 6 634 z m 124 123 l 124 548 q 124 596 112 619 q 100 641 58 641 q 44 641 36 639 q 65 626 78 607 q 91 588 91 554 l 91 20 q 107 35 115 48 q 122 61 123 76 q 124 92 124 123 z m 188 356 l 188 166 q 188 100 211 59 q 235 19 281 19 q 315 19 342 43 q 369 66 385 112 q 400 157 400 221 q 400 276 385 316 q 370 356 344 375 q 317 395 285 395 q 266 395 236 382 q 205 369 188 356 z m 291 408 q 352 402 384 355 q 416 308 416 222 q 416 146 396 96 q 377 47 336 20 q 393 36 420 86 q 447 137 447 224 q 447 315 407 364 q 367 412 317 412 q 314 412 291 408 z"},"%":{"x_min":0,"x_max":948,"ha":948,"o":"m 270 -25 l 217 -25 l 677 704 l 728 704 z m 922 157 q 922 104 897 62 q 872 20 826 -4 q 780 -27 718 -27 q 655 -27 609 -4 q 563 20 539 62 q 515 104 515 158 q 515 212 540 254 q 564 296 610 319 q 656 342 716 342 q 765 342 804 328 q 843 314 869 290 q 895 266 908 231 q 922 197 922 157 z m 767 311 q 783 296 794 274 q 805 252 810 223 q 815 194 815 153 q 815 114 810 85 q 805 57 794 36 q 784 16 767 0 q 807 22 827 60 q 847 97 847 154 q 847 193 838 224 q 829 255 811 278 q 792 300 767 311 z m 799 151 q 799 235 780 272 q 761 310 719 310 q 678 310 659 272 q 641 234 641 156 q 641 78 660 39 q 678 0 718 0 q 799 0 799 151 z m 677 322 q 644 318 615 304 q 587 289 568 266 q 549 243 540 215 q 531 187 531 158 q 531 117 548 81 q 565 44 598 21 q 631 -2 677 -6 q 640 9 615 33 q 590 57 578 87 q 566 118 566 156 q 566 218 594 259 q 623 299 677 322 z m 431 519 q 431 437 376 386 q 321 336 228 336 q 134 336 79 386 q 25 437 25 520 q 25 573 49 615 q 74 657 120 679 q 166 702 225 702 q 290 702 336 679 q 383 655 407 614 q 431 573 431 519 z m 277 674 q 302 651 314 614 q 325 577 325 517 q 325 458 314 425 q 302 391 277 366 q 356 410 356 518 q 356 578 336 617 q 316 657 277 674 z m 309 514 q 309 598 290 636 q 271 675 229 675 q 187 675 168 636 q 150 597 150 519 q 150 442 169 402 q 189 363 228 363 q 309 363 309 514 z m 187 684 q 141 678 108 655 q 75 632 58 597 q 41 562 41 521 q 41 457 80 409 q 119 362 187 357 q 149 373 125 396 q 100 419 88 450 q 75 481 75 519 q 75 562 88 593 q 101 624 125 646 q 150 667 187 684 z"},"m":{"x_min":0,"x_max":875,"ha":875,"o":"m 499 335 l 499 84 q 499 58 507 43 q 516 28 535 28 q 543 28 548 28 q 554 27 560 27 l 560 0 l 325 0 l 325 27 q 364 25 375 38 q 387 51 387 83 l 387 298 q 387 395 320 395 q 295 395 261 378 q 228 361 203 335 l 203 74 q 203 45 219 36 q 234 27 266 27 l 266 0 l 26 0 l 26 27 l 32 27 q 56 27 69 32 q 82 38 86 50 q 90 62 90 83 l 90 282 q 90 317 78 335 q 67 354 29 368 l 29 385 l 187 435 l 203 435 l 203 368 q 242 401 283 418 q 324 435 363 435 q 389 435 414 427 q 439 418 459 402 q 479 386 490 363 q 532 398 573 417 q 614 435 659 435 q 701 435 731 420 q 762 405 779 374 q 796 342 796 296 l 796 74 q 796 56 802 46 q 807 37 821 32 q 834 27 858 27 l 858 0 l 621 0 l 621 27 l 633 27 q 660 27 672 38 q 684 50 684 78 l 684 288 q 684 339 670 367 q 656 395 617 395 q 563 395 499 335 z m 435 98 l 435 314 q 435 362 413 384 q 390 406 348 402 q 383 391 393 365 q 403 340 403 289 l 403 76 q 403 56 398 45 q 394 34 381 24 q 417 26 426 43 q 435 60 435 98 z m 732 94 l 732 311 q 732 339 725 359 q 719 379 699 391 q 679 402 640 402 q 676 390 688 369 q 700 349 700 308 l 700 102 q 700 64 697 50 q 693 35 677 23 q 701 22 713 32 q 726 42 729 58 q 732 73 732 94 z m 139 91 l 139 298 q 139 334 123 352 q 107 370 82 370 q 77 370 59 368 q 89 358 97 336 q 106 313 106 271 l 106 105 q 106 66 103 52 q 100 38 86 27 q 122 27 130 44 q 139 61 139 91 z"},"#":{"x_min":0,"x_max":500,"ha":500,"o":"m 44 -14 l 86 193 l 20 193 l 20 258 l 99 258 l 127 401 l 20 401 l 20 464 l 140 464 l 183 676 l 247 676 l 204 464 l 348 464 l 390 676 l 455 676 l 412 464 l 480 464 l 480 401 l 399 401 l 370 258 l 480 258 l 480 193 l 358 193 l 316 -14 l 251 -14 l 293 193 l 151 193 l 107 -14 z m 164 258 l 307 258 l 335 401 l 192 401 z"},",":{"x_min":0,"x_max":240,"ha":240,"o":"m 48 -214 l 48 -187 q 117 -147 117 -88 q 117 -66 109 -51 q 101 -35 84 -12 q 67 10 59 25 q 52 40 52 59 q 52 82 68 98 q 85 114 108 114 q 133 114 150 97 q 168 80 177 51 q 187 22 187 -8 q 187 -50 169 -91 q 151 -132 119 -165 q 86 -198 48 -214 z m 126 90 q 111 97 105 97 q 89 97 78 86 q 68 75 68 58 q 68 40 74 29 q 81 19 98 -5 q 116 -29 125 -46 q 133 -63 133 -88 q 133 -109 117 -141 q 155 -100 155 -57 q 155 -36 147 -20 q 140 -4 129 9 q 119 22 109 36 q 99 50 99 62 q 99 73 106 79 q 112 85 126 90 z"},"n":{"x_min":0,"x_max":573,"ha":573,"o":"m 197 435 l 197 370 q 238 402 273 418 q 308 435 356 435 q 494 435 494 298 l 494 75 q 494 43 509 35 q 524 27 555 27 l 555 0 l 320 0 l 320 27 q 351 27 365 37 q 380 47 380 79 l 380 315 q 380 341 372 359 q 364 376 348 386 q 333 395 310 395 q 282 395 256 381 q 229 366 197 337 l 197 79 q 197 57 204 45 q 211 34 224 31 q 236 28 260 27 l 260 0 l 24 0 l 24 27 q 54 27 70 35 q 86 43 86 72 l 86 288 q 86 320 71 340 q 57 360 24 370 l 24 386 l 178 435 z m 102 304 l 102 80 q 102 58 99 48 q 96 39 85 27 q 133 31 133 80 l 133 313 q 133 337 115 355 q 98 372 75 372 q 73 372 66 371 q 60 370 58 370 q 102 350 102 304 z m 396 320 l 396 79 q 396 64 395 57 q 395 50 391 43 q 388 37 379 27 l 388 27 q 414 27 422 46 q 430 64 430 102 l 430 318 q 430 360 412 382 q 393 404 346 406 q 373 395 384 375 q 396 354 396 320 z"},"h":{"x_min":0,"x_max":573,"ha":573,"o":"m 560 27 l 560 0 l 321 0 l 321 27 q 340 28 350 30 q 360 31 368 37 q 375 42 379 53 q 383 64 383 81 l 383 310 q 383 355 362 377 q 342 398 313 398 q 265 398 198 338 l 198 76 q 198 48 212 38 q 225 28 264 27 l 264 0 l 23 0 l 23 27 q 56 28 70 35 q 85 42 85 69 l 85 545 q 85 612 16 629 l 16 649 l 178 700 l 198 700 l 198 371 q 233 402 274 418 q 315 435 357 435 q 400 435 431 420 q 462 405 479 375 q 496 345 496 301 l 496 98 q 496 69 498 57 q 500 44 511 36 q 522 27 549 27 z m 399 329 l 399 75 q 399 57 395 47 q 390 38 380 28 q 411 28 422 43 q 432 58 432 90 l 432 298 q 432 336 427 357 q 421 378 403 392 q 384 405 345 407 q 399 387 399 329 z m 101 545 l 101 82 q 101 61 98 50 q 96 40 87 30 l 100 30 q 111 30 123 42 q 134 55 134 78 l 134 549 q 134 583 125 601 q 117 617 101 626 q 85 636 68 636 q 60 636 41 633 q 77 620 89 599 q 101 578 101 545 z"},"z":{"x_min":0,"x_max":448,"ha":448,"o":"m 402 165 l 431 165 l 398 0 l 22 0 l 22 7 l 287 400 l 231 400 q 177 400 138 379 q 100 358 49 302 l 22 302 l 63 445 l 90 445 q 107 432 127 429 q 146 427 191 427 l 431 427 l 431 416 l 171 27 l 213 27 q 258 27 293 46 q 327 65 350 92 q 373 119 402 165 z m 293 27 l 363 27 l 383 108 q 368 83 347 64 q 326 46 293 27 z m 263 338 l 54 27 q 74 27 87 34 q 100 41 107 49 q 114 58 128 79 l 345 402 q 319 400 305 390 q 291 379 263 338 z m 72 420 l 49 339 q 61 351 73 364 q 85 376 99 385 q 113 395 133 402 q 110 402 98 405 q 87 407 72 420 z"},"B":{"x_min":0,"x_max":698,"ha":698,"o":"m 428 0 l 30 0 l 30 27 l 41 27 q 86 27 106 39 q 126 52 130 72 q 134 92 134 137 l 134 570 q 134 607 128 626 q 122 645 100 654 q 79 662 30 662 l 30 689 l 412 689 q 463 689 505 676 q 548 662 577 638 q 606 615 623 583 q 639 551 639 514 q 639 474 619 441 q 598 407 556 385 q 514 362 454 353 q 553 340 605 292 q 658 244 658 172 q 658 135 642 103 q 626 72 596 49 q 565 25 522 13 q 479 0 428 0 z m 181 107 l 181 597 q 181 630 168 646 q 155 662 119 662 l 109 662 q 132 655 141 639 q 150 623 150 586 l 150 104 q 150 67 140 51 q 131 36 109 27 l 123 27 q 161 27 171 50 q 181 72 181 107 z m 256 368 l 347 368 q 413 368 444 384 q 472 398 490 433 q 507 468 507 512 q 507 547 496 578 q 485 608 465 628 q 444 650 419 656 q 394 662 351 662 q 295 662 276 645 q 256 628 256 586 z m 256 341 l 256 103 q 256 78 262 64 q 268 49 281 41 q 295 32 316 30 q 336 27 372 27 q 422 27 455 45 q 488 62 505 96 q 521 130 521 179 q 521 229 502 265 q 484 301 449 321 q 415 341 367 341 z m 437 340 q 486 321 511 282 q 537 243 537 179 q 537 57 439 23 q 502 30 534 72 q 567 114 567 186 q 567 253 532 294 q 498 335 437 340 z m 443 368 q 554 397 554 515 q 554 554 542 586 q 529 618 503 638 q 478 659 440 662 q 480 646 501 606 q 523 566 523 510 q 523 407 443 368 z"},"K":{"x_min":0,"x_max":802,"ha":802,"o":"m 444 662 l 444 689 l 736 689 l 736 662 q 703 658 669 643 q 635 627 602 604 q 569 580 527 544 l 409 440 l 668 116 q 697 80 714 63 q 731 47 749 38 q 767 30 790 27 l 790 0 l 462 0 l 462 27 q 540 27 540 62 q 540 74 532 87 q 524 100 511 116 l 318 358 l 257 303 l 257 116 q 257 76 269 55 q 281 34 312 31 q 328 30 339 29 q 349 27 357 27 l 357 0 l 24 0 l 24 27 l 39 27 q 82 27 103 37 q 123 47 129 67 q 135 86 135 118 l 135 577 q 135 610 127 627 q 120 645 96 653 q 73 662 24 662 l 24 689 l 357 689 l 357 662 l 350 662 q 293 662 275 644 q 257 626 257 583 l 257 340 l 455 517 q 488 547 505 570 q 522 592 522 613 q 522 635 507 648 q 491 662 463 662 z m 630 662 l 515 662 q 538 643 538 620 q 538 605 531 590 q 564 620 583 635 q 602 650 630 662 z m 551 141 l 353 389 l 331 369 l 515 135 q 536 109 546 93 q 556 76 556 60 q 556 39 532 27 l 545 27 q 564 27 577 39 q 589 50 589 66 q 589 94 551 141 z m 182 112 l 182 573 q 182 627 170 645 q 159 663 114 662 q 138 651 144 636 q 151 620 151 565 l 151 104 q 151 67 143 52 q 135 37 110 27 l 122 27 q 152 27 165 36 q 177 46 180 62 q 182 79 182 112 z"},"R":{"x_min":0,"x_max":771,"ha":771,"o":"m 366 0 l 28 0 l 28 27 q 75 28 98 34 q 121 41 130 58 q 138 75 138 112 l 138 568 q 138 607 131 626 q 124 645 101 653 q 78 661 28 662 l 28 689 l 413 689 q 486 689 540 664 q 595 639 622 597 q 650 555 650 507 q 650 475 637 445 q 625 415 601 391 q 577 366 543 349 q 509 332 464 324 q 498 291 547 229 l 595 172 q 599 167 605 161 q 611 154 620 144 q 644 116 660 97 q 676 79 692 64 q 708 50 723 41 q 738 32 755 27 l 755 0 l 663 0 q 632 0 604 14 q 576 28 551 53 q 525 79 492 120 l 424 207 q 376 269 353 292 q 330 316 313 316 l 259 316 l 259 109 q 259 78 267 61 q 274 43 301 35 q 315 31 335 29 q 356 26 366 27 z m 154 572 l 154 90 q 154 44 120 27 q 184 28 184 76 l 184 569 q 184 606 180 626 q 176 645 161 654 q 146 664 115 662 q 141 651 147 633 q 154 614 154 572 z m 259 563 l 259 343 l 338 343 q 378 343 417 356 q 456 369 476 388 q 516 426 516 503 q 516 594 454 637 q 432 652 408 657 q 384 662 347 662 q 310 662 290 652 q 271 642 265 622 q 259 602 259 563 z m 386 316 l 346 316 q 364 303 387 276 q 410 250 445 205 q 480 160 516 114 q 549 72 577 50 q 604 28 626 21 q 647 15 672 14 q 642 29 614 54 q 586 80 554 119 q 522 159 488 202 q 454 246 418 284 q 413 291 406 300 q 399 308 386 316 z m 429 345 q 495 354 530 394 q 565 435 565 504 q 565 571 534 611 q 502 651 445 659 q 489 637 510 599 q 532 561 532 498 q 532 432 507 398 q 481 365 429 345 z"},"T":{"x_min":0,"x_max":729,"ha":729,"o":"m 54 689 l 675 689 l 710 528 l 675 528 q 637 591 596 620 q 555 649 519 655 q 482 661 424 662 l 424 107 q 424 75 434 58 q 444 41 468 35 q 491 28 533 27 l 533 0 l 191 0 l 191 27 q 233 28 256 33 q 279 39 290 57 q 302 75 302 113 l 302 662 q 249 662 210 652 q 171 642 145 625 q 118 607 101 588 q 83 569 50 528 l 20 528 z m 655 584 l 633 662 l 541 662 q 578 650 603 632 q 628 613 655 584 z m 349 124 l 349 604 q 349 632 343 646 q 336 661 318 662 l 318 107 q 318 77 311 59 q 303 41 283 27 l 294 27 q 330 27 339 49 q 349 72 349 124 z m 145 662 l 66 662 l 47 579 q 72 612 90 628 q 109 644 145 662 z"},"P":{"x_min":0,"x_max":688,"ha":688,"o":"m 260 313 l 260 106 q 260 77 268 61 q 277 45 292 38 q 306 32 333 30 q 360 28 383 27 l 383 0 l 28 0 l 28 27 q 67 28 87 31 q 107 35 118 44 q 130 54 134 70 q 138 85 138 112 l 138 542 q 138 596 134 618 q 129 641 106 651 q 83 662 28 662 l 28 689 l 364 689 q 386 689 471 681 q 499 679 530 665 q 561 651 588 628 q 615 604 631 572 q 648 539 648 501 q 648 458 631 424 q 614 390 579 365 q 544 340 491 327 q 438 313 368 313 z m 154 548 l 154 89 q 154 42 118 27 l 131 27 q 185 27 185 78 l 185 525 q 185 585 184 604 q 184 622 178 635 q 172 648 158 655 q 144 661 114 663 q 133 654 141 642 q 149 630 151 609 q 154 587 154 548 z m 260 340 l 328 340 q 390 340 431 355 q 472 370 494 405 q 516 440 516 500 q 516 589 456 634 q 432 651 408 657 q 383 662 347 662 q 306 662 287 650 q 269 639 264 615 q 260 592 260 546 z m 447 345 q 505 354 534 392 q 563 429 563 498 q 563 571 534 607 q 504 644 446 656 q 474 642 493 619 q 513 596 522 565 q 532 534 532 498 q 532 382 447 345 z"},"|":{"x_min":0,"x_max":220,"ha":220,"o":"m 78 -216 l 78 677 l 141 677 l 141 -216 z"},"t":{"x_min":0,"x_max":323,"ha":323,"o":"m 77 118 l 77 396 l 25 396 l 25 421 q 68 453 89 470 q 111 488 130 509 q 149 531 163 554 l 189 554 l 189 427 l 310 427 l 310 396 l 189 396 l 189 104 q 189 72 197 56 q 205 40 223 40 q 241 40 256 50 q 271 60 292 80 l 310 61 q 273 23 243 5 q 212 -13 173 -13 q 135 -13 114 3 q 93 20 85 49 q 77 77 77 118 z m 125 479 l 93 452 l 93 128 q 93 63 110 33 q 126 4 170 4 q 193 4 216 11 q 171 10 148 32 q 125 54 125 106 z"},"M":{"x_min":0,"x_max":927,"ha":927,"o":"m 466 167 l 679 689 l 890 689 l 890 662 q 841 662 821 649 q 801 637 797 614 q 794 591 794 530 l 794 108 q 794 76 802 59 q 811 42 830 36 q 849 29 890 27 l 890 0 l 575 0 l 575 27 q 622 27 643 39 q 664 50 668 69 q 672 87 672 131 l 672 602 l 429 0 l 401 0 l 161 583 l 161 183 q 161 116 187 78 q 212 40 272 27 l 272 0 l 25 0 l 25 27 q 77 32 105 68 q 134 103 134 167 l 134 620 q 114 642 86 653 q 58 664 25 662 l 25 689 l 248 689 z m 719 113 l 719 584 q 719 642 728 662 q 708 661 700 651 q 692 642 690 625 q 688 608 688 571 l 688 100 q 688 65 681 52 q 674 39 652 27 l 669 27 q 703 27 711 46 q 719 65 719 113 z m 119 662 l 101 662 q 131 650 149 630 q 166 609 184 565 l 410 27 q 421 46 421 61 q 421 75 410 100 l 216 572 q 198 618 177 640 q 157 662 119 662 z m 81 27 l 184 27 q 167 36 156 52 q 145 69 139 91 q 132 71 118 55 q 104 40 81 27 z"},"g":{"x_min":0,"x_max":510,"ha":510,"o":"m 43 282 q 43 346 93 390 q 143 435 224 435 q 312 435 379 379 q 397 396 418 406 q 440 415 460 415 q 488 415 506 400 q 524 385 524 362 q 524 346 513 334 q 502 322 485 322 q 475 322 466 327 q 458 333 448 344 q 438 356 431 362 q 424 367 415 367 q 407 367 396 360 q 428 316 428 273 q 428 234 406 199 q 384 165 346 145 q 322 133 299 129 q 276 125 249 123 q 193 119 162 109 q 131 99 131 71 q 131 35 192 35 q 212 36 229 36 q 245 36 273 36 q 369 36 416 9 q 464 -18 464 -82 q 464 -116 449 -145 q 434 -174 403 -195 q 372 -216 323 -228 q 273 -240 209 -240 q 115 -240 65 -213 q 16 -187 16 -142 q 16 -111 40 -86 q 64 -62 111 -59 q 48 -31 48 21 q 48 55 77 84 q 106 114 160 134 q 43 184 43 282 z m 264 413 q 296 392 311 361 q 325 331 325 282 q 325 193 276 151 q 356 178 356 275 q 356 394 264 413 z m 309 285 q 309 343 287 375 q 265 408 234 408 q 202 408 182 374 q 161 340 161 285 q 161 224 182 188 q 203 152 238 152 q 270 152 289 187 q 309 222 309 285 z m 198 420 q 158 415 126 395 q 94 375 76 346 q 59 317 59 283 q 59 235 90 199 q 120 162 182 146 q 137 172 115 207 q 93 242 93 280 q 93 320 119 357 q 146 395 198 420 z m 122 99 q 93 81 79 62 q 64 44 64 19 q 64 -12 96 -33 q 129 -54 183 -54 q 292 -55 329 -57 q 367 -60 396 -75 q 426 -91 426 -128 q 426 -131 424 -143 q 437 -120 437 -102 q 437 -65 404 -45 q 372 -25 307 -24 q 261 -23 215 -22 q 169 -21 144 -16 q 119 -11 106 2 q 93 15 93 38 q 93 54 100 68 q 108 82 122 99 z m 226 -217 q 283 -217 324 -206 q 365 -195 388 -175 q 410 -154 410 -128 q 410 -71 279 -71 q 220 -71 183 -77 q 146 -83 126 -100 q 106 -117 106 -145 q 106 -178 138 -197 q 169 -217 226 -217 z m 122 -217 q 65 -187 65 -143 q 65 -118 83 -102 q 101 -85 136 -69 q 85 -73 59 -92 q 32 -111 32 -141 q 32 -167 55 -187 q 78 -207 122 -217 z m 504 377 q 498 368 486 368 q 477 368 458 378 q 440 388 428 388 q 423 388 419 386 q 414 384 410 383 q 414 384 420 384 q 433 384 454 360 q 470 339 485 339 q 496 339 502 347 q 508 354 508 363 q 508 369 504 377 z"},"j":{"x_min":0,"x_max":271,"ha":271,"o":"m 85 -160 l 85 248 q 85 293 82 314 q 80 335 66 349 q 52 364 18 376 l 18 395 l 178 435 l 196 435 l 196 -20 q 196 -62 192 -91 q 188 -120 173 -149 q 152 -191 110 -216 q 68 -240 20 -240 q -20 -240 -44 -221 q -68 -203 -68 -174 q -68 -153 -53 -138 q -39 -124 -22 -124 q -6 -124 9 -135 q 24 -147 30 -164 q 34 -175 37 -186 q 41 -196 46 -202 q 51 -208 59 -208 q 85 -208 85 -160 z m 132 -77 l 132 285 q 132 329 121 354 q 110 380 69 380 q 57 380 50 379 q 84 366 93 345 q 101 324 101 281 l 101 -114 q 102 -122 102 -134 q 102 -146 100 -164 q 98 -182 94 -197 q 120 -180 126 -152 q 132 -124 132 -77 z m 1 -148 q -10 -141 -21 -141 q -36 -141 -44 -152 q -52 -162 -52 -175 q -52 -194 -35 -207 q -19 -220 12 -223 q -21 -201 -21 -175 q -21 -154 1 -148 z m 135 674 q 153 674 169 665 q 186 655 195 639 q 204 624 204 605 q 204 586 195 571 q 186 555 169 546 q 153 537 135 537 q 106 537 86 557 q 66 576 66 605 q 66 633 86 654 q 106 674 135 674 z m 142 658 l 135 658 q 112 658 97 642 q 82 625 82 605 q 82 586 96 570 q 111 554 131 554 q 134 555 136 555 q 139 555 142 555 q 128 564 121 575 q 113 585 113 606 q 113 638 142 658 z"},"i":{"x_min":0,"x_max":271,"ha":271,"o":"m 194 435 l 194 82 q 194 60 198 48 q 203 37 216 32 q 229 28 256 27 l 256 0 l 28 0 l 28 27 q 58 28 70 39 q 82 50 82 79 l 82 303 q 82 324 68 342 q 54 360 28 369 l 28 385 l 174 435 z m 98 302 l 98 70 q 98 42 78 27 q 105 27 117 39 q 130 51 130 79 l 130 308 q 130 339 115 356 q 100 373 75 373 q 64 373 57 372 q 98 351 98 302 z m 134 673 q 152 673 168 664 q 185 655 194 639 q 203 624 203 605 q 203 586 194 571 q 185 555 168 545 q 152 536 134 536 q 106 536 86 557 q 66 577 66 605 q 66 623 75 639 q 84 655 100 664 q 116 673 134 673 z m 142 657 q 113 657 98 644 q 82 630 82 606 q 82 583 97 568 q 112 553 142 552 q 126 566 119 577 q 112 588 112 605 q 112 637 142 657 z"},"y":{"x_min":0,"x_max":500,"ha":500,"o":"m 322 427 l 490 427 l 490 402 q 466 392 450 377 q 433 362 422 343 q 410 324 397 294 q 383 264 370 230 l 239 -104 q 186 -240 98 -240 q 69 -240 49 -224 q 28 -208 28 -186 q 28 -167 44 -153 q 61 -140 83 -140 q 94 -140 107 -146 q 120 -151 132 -156 q 145 -162 155 -162 q 187 -162 213 -95 l 239 -25 l 92 317 q 86 332 79 348 q 72 364 63 375 q 55 387 42 394 q 30 401 11 402 l 11 427 l 265 427 l 265 402 q 235 400 219 393 q 203 386 203 365 q 203 344 217 311 l 298 124 l 359 274 q 371 303 371 337 q 371 392 322 402 z m 436 400 l 359 400 q 374 388 379 376 q 384 363 386 337 q 397 362 408 375 q 419 389 436 400 z m 249 0 l 265 39 l 139 331 q 125 364 115 379 q 106 393 93 398 q 80 404 59 402 q 79 384 86 371 q 93 357 108 322 z m 115 -225 q 75 -216 75 -187 q 75 -169 99 -157 q 84 -153 78 -153 q 63 -153 53 -162 q 44 -172 44 -185 q 44 -205 62 -216 q 81 -228 115 -225 z"},"@":{"x_min":0,"x_max":832,"ha":832,"o":"m 464 80 q 436 40 403 19 q 371 -1 343 -1 q 284 -1 244 52 q 196 116 196 218 q 196 300 230 378 q 265 456 312 492 q 360 529 405 529 q 438 529 470 507 q 502 484 525 439 l 538 515 l 610 515 l 552 188 q 541 120 541 112 q 541 98 549 89 q 557 80 568 80 q 590 80 629 114 q 669 148 696 213 q 723 278 723 351 q 723 438 685 508 q 647 579 581 618 q 515 658 438 658 q 345 658 271 608 q 196 558 149 460 q 103 361 103 235 q 103 116 145 32 q 187 -51 264 -95 q 342 -138 449 -138 q 545 -138 618 -98 q 691 -58 729 9 l 802 9 q 778 -50 723 -104 q 668 -158 602 -184 q 535 -210 449 -210 q 322 -210 234 -160 q 146 -109 94 -10 q 43 89 43 228 q 43 376 100 496 q 156 616 241 673 q 327 729 441 729 q 537 729 614 682 q 690 635 736 546 q 782 457 782 349 q 782 203 697 92 q 625 -2 541 -2 q 501 -2 484 18 q 467 38 464 80 z m 270 212 q 270 145 297 108 q 323 71 356 71 q 385 71 419 99 q 453 128 478 188 q 502 249 502 316 q 502 384 475 420 q 447 457 409 457 q 379 457 349 431 q 319 406 294 340 q 270 275 270 212 z"},".":{"x_min":0,"x_max":240,"ha":240,"o":"m 123 111 q 148 111 166 93 q 184 74 184 49 q 184 32 176 18 q 167 3 153 -5 q 139 -13 123 -13 q 98 -13 80 5 q 63 23 63 49 q 63 75 80 93 q 97 111 123 111 z m 133 8 q 122 19 117 28 q 112 36 112 51 q 112 67 117 76 q 122 84 133 93 q 129 94 121 94 q 105 94 92 81 q 79 68 79 50 q 79 32 92 20 q 104 7 120 7 q 128 7 133 8 z"},"p":{"x_min":0,"x_max":552,"ha":552,"o":"m 190 435 l 190 382 q 224 407 256 421 q 288 435 327 435 q 365 435 401 418 q 437 402 464 373 q 491 343 508 302 q 524 260 524 214 q 524 149 494 98 q 463 46 410 17 q 357 -12 292 -12 q 241 -12 190 10 l 190 -159 q 190 -178 194 -190 q 198 -201 210 -207 q 223 -212 246 -212 l 271 -212 l 271 -239 l 16 -239 l 16 -211 q 41 -210 53 -208 q 65 -205 72 -196 q 78 -187 78 -168 l 78 294 q 78 332 63 351 q 48 370 13 382 l 13 402 l 171 435 z m 126 -142 l 126 299 q 126 344 108 365 q 90 385 48 382 q 75 367 85 350 q 94 333 94 296 l 94 -164 q 94 -184 90 -195 q 85 -207 73 -216 q 106 -213 116 -197 q 126 -181 126 -142 z m 190 346 l 190 58 q 236 15 278 15 q 312 15 339 36 q 367 56 384 98 q 401 140 401 200 q 401 259 385 300 q 369 341 341 361 q 312 382 278 382 q 235 382 190 346 z m 268 397 l 280 397 q 342 397 379 345 q 417 294 417 200 q 417 128 398 89 q 380 50 347 23 q 381 36 404 60 q 426 84 438 121 q 449 158 449 203 q 449 258 436 299 q 422 339 402 363 q 381 386 358 397 q 335 408 314 408 q 293 408 268 397 z"},"X":{"x_min":0,"x_max":802,"ha":802,"o":"m 484 689 l 754 689 l 754 662 q 704 659 658 624 q 612 588 548 512 l 442 385 l 616 157 q 660 99 677 79 q 694 60 721 43 q 748 27 784 27 l 784 0 l 432 0 l 432 27 l 444 27 q 479 27 497 39 q 514 50 514 66 q 514 84 499 108 q 484 132 458 166 l 364 290 l 270 179 q 243 147 231 125 q 219 104 219 83 q 219 56 239 42 q 259 29 297 27 l 297 0 l 24 0 l 24 27 l 30 27 q 52 27 84 43 q 116 59 156 94 q 197 129 238 179 l 348 312 l 169 547 q 130 598 110 621 q 90 643 70 652 q 50 662 19 662 l 19 689 l 354 689 l 354 662 l 319 662 q 299 662 285 654 q 271 645 271 630 q 271 618 277 606 q 284 595 300 573 l 425 407 l 515 516 q 562 572 562 608 q 562 629 542 645 q 522 661 484 662 z m 653 662 l 548 662 q 578 644 578 611 q 578 602 577 596 q 605 639 653 662 z m 501 188 l 188 600 q 166 629 154 640 q 143 651 126 657 q 109 663 81 663 q 99 656 119 636 q 139 617 168 578 l 496 141 q 530 95 530 67 q 530 47 504 27 q 533 26 549 38 q 564 50 564 70 q 564 91 549 118 q 534 145 501 188 z m 90 27 l 209 27 q 181 43 181 72 q 181 87 189 105 q 170 85 161 76 q 152 67 134 54 q 115 41 90 27 z"},"*":{"x_min":0,"x_max":469,"ha":469,"o":"m 105 451 q 58 451 33 467 q 9 482 9 512 q 9 535 24 550 q 40 565 64 565 q 91 565 112 553 q 133 541 166 514 q 200 488 222 477 q 222 495 215 515 q 209 535 199 561 q 188 587 184 602 q 180 616 180 634 q 180 660 196 677 q 211 693 230 693 q 253 693 270 677 q 287 661 287 632 q 287 615 283 599 q 280 583 274 566 q 268 549 260 526 q 251 503 246 477 q 266 485 302 513 q 338 541 360 553 q 381 566 408 566 q 430 566 445 551 q 460 536 460 514 q 460 485 435 469 q 410 453 363 453 q 336 454 308 455 q 279 456 255 450 q 276 434 319 403 q 363 372 378 354 q 394 335 394 312 q 394 292 379 277 q 364 261 343 261 q 311 261 295 285 q 280 309 264 361 q 249 413 235 438 q 225 420 213 380 q 201 341 192 317 q 183 292 167 276 q 152 259 128 259 q 106 259 90 274 q 74 290 74 312 q 74 339 92 358 q 109 376 149 404 q 189 431 212 450 q 201 453 178 453 q 168 453 143 452 q 118 451 105 451 z m 229 477 l 235 477 q 238 490 238 508 q 238 523 232 564 q 226 604 226 625 q 226 657 243 676 l 232 676 q 218 676 207 664 q 196 652 196 628 q 196 613 202 592 q 208 571 214 555 q 220 539 224 520 q 229 500 229 481 z m 252 467 l 252 462 q 272 465 296 475 q 320 485 344 497 q 368 508 386 515 q 404 522 421 522 q 432 522 444 517 q 442 533 432 541 q 422 549 406 549 q 381 549 366 539 q 350 529 313 503 q 276 476 252 467 z m 247 446 l 243 443 q 254 422 277 398 q 299 374 315 356 q 332 339 343 320 q 355 302 355 282 l 354 277 q 378 290 378 312 q 378 334 359 351 q 341 368 300 398 q 258 429 247 446 z m 226 443 l 222 446 q 205 430 188 401 q 171 372 160 351 q 149 330 135 313 q 120 296 98 288 q 112 276 126 276 q 152 276 165 298 q 177 320 193 370 q 209 420 226 443 z m 217 461 l 217 466 q 188 479 139 488 q 90 497 67 503 q 45 510 31 531 q 25 522 25 513 q 25 494 44 481 q 64 468 99 468 q 111 468 128 469 q 145 470 162 470 q 175 470 185 469 q 194 467 202 465 q 210 463 217 461 z"},"Y":{"x_min":0,"x_max":729,"ha":729,"o":"m 498 662 l 498 689 l 716 689 l 716 662 q 694 659 672 643 q 650 627 626 597 q 603 567 578 524 l 434 277 l 434 101 q 434 54 457 42 q 480 31 538 27 l 538 0 l 209 0 l 209 27 l 218 27 q 260 27 281 38 q 302 49 307 66 q 312 83 312 111 l 312 253 l 104 602 q 86 633 70 648 q 54 664 14 662 l 14 689 l 336 689 l 336 662 q 292 661 268 655 q 244 648 244 622 q 244 602 279 544 l 420 309 l 514 468 q 540 511 552 542 q 565 573 565 600 q 565 625 548 643 q 530 662 503 662 z m 581 603 l 581 592 q 593 618 605 631 q 617 645 637 662 l 552 662 q 581 644 581 603 z m 359 266 l 156 608 q 136 642 124 652 q 112 662 90 662 l 75 662 q 88 657 97 645 q 105 633 120 608 l 328 259 l 328 90 q 328 62 319 50 q 309 39 283 27 l 304 27 q 335 27 347 42 q 359 57 359 88 z"},"c":{"x_min":0,"x_max":448,"ha":448,"o":"m 322 377 q 322 390 308 399 q 294 408 275 408 q 238 408 208 387 q 179 366 162 326 q 145 286 145 236 q 145 189 165 152 q 185 114 218 93 q 251 72 291 72 q 324 72 360 87 q 396 102 417 125 l 434 102 q 396 46 342 17 q 288 -13 232 -13 q 180 -13 133 15 q 86 43 58 92 q 30 141 30 198 q 30 245 47 288 q 64 330 96 364 q 128 397 172 416 q 216 435 269 435 q 312 435 347 422 q 382 409 403 386 q 423 363 423 336 q 423 312 405 296 q 388 281 364 281 q 342 281 327 296 q 313 312 313 329 q 313 333 317 351 q 322 370 322 377 z m 329 329 q 329 313 341 306 q 353 298 367 298 q 372 298 391 302 q 361 308 361 333 q 361 335 363 344 q 365 354 365 360 q 365 387 327 401 q 338 386 338 373 q 338 365 333 351 q 329 336 329 329 z m 192 405 q 145 387 113 356 q 80 326 63 285 q 46 244 46 202 q 46 145 73 100 q 101 54 145 29 q 190 4 236 4 q 303 4 362 48 q 298 27 259 27 q 209 27 167 49 q 126 72 102 112 q 77 152 77 201 q 77 258 107 311 q 136 363 192 405 z"},"!":{"x_min":0,"x_max":240,"ha":240,"o":"m 158 427 l 134 201 l 106 201 l 77 470 q 63 590 63 606 q 63 654 79 678 q 95 702 123 702 q 149 702 166 681 q 182 659 182 617 q 182 588 172 522 q 161 456 158 427 z m 115 278 l 120 278 q 125 313 125 351 q 125 416 117 511 q 110 607 110 622 q 110 670 139 682 q 135 685 124 685 q 105 685 92 666 q 79 646 79 622 q 79 610 81 592 q 82 573 85 552 q 88 531 89 521 z m 122 111 q 139 111 153 103 q 167 94 175 80 q 183 66 183 49 q 183 23 165 5 q 147 -13 122 -13 q 97 -13 80 5 q 62 24 62 49 q 62 75 79 93 q 96 111 122 111 z m 130 93 l 122 93 q 106 93 92 81 q 78 70 78 49 q 78 30 93 17 q 108 5 130 8 q 127 12 122 19 q 117 25 114 34 q 111 42 111 52 q 111 74 130 93 z"},"/":{"x_min":0,"x_max":531,"ha":531,"o":"m 57 -18 l 407 696 l 474 696 l 124 -18 z"},"[":{"x_min":0,"x_max":323,"ha":323,"o":"m 77 689 l 301 689 l 301 662 l 247 662 q 223 662 211 657 q 198 652 194 642 q 189 631 189 614 l 189 -151 q 189 -167 192 -178 q 195 -189 206 -196 q 216 -202 238 -202 l 301 -202 l 301 -229 l 77 -229 z m 93 662 l 93 -202 q 113 -197 119 -183 q 125 -169 125 -135 l 125 551 l 125 586 l 125 613 q 125 653 93 662 z"},"6":{"x_min":0,"x_max":510,"ha":510,"o":"m 407 702 l 407 673 q 348 662 298 625 q 249 589 216 533 q 182 476 166 403 q 222 441 284 441 q 327 441 365 425 q 402 409 430 380 q 458 351 475 310 q 491 269 491 220 q 491 154 462 101 q 432 47 380 17 q 329 -13 265 -13 q 197 -13 144 23 q 90 60 60 126 q 30 192 30 279 q 30 362 49 426 q 68 490 110 545 q 146 591 193 626 q 240 662 294 681 q 349 700 407 702 z m 324 674 q 265 656 220 628 q 174 600 131 545 q 46 436 46 288 q 46 148 119 65 q 142 39 157 30 q 173 21 207 8 q 164 39 135 79 q 106 119 92 171 q 78 223 78 286 q 78 370 107 444 q 137 519 192 578 q 247 636 324 674 z m 150 230 q 150 176 158 137 q 166 97 182 69 q 198 41 218 27 q 239 14 264 14 q 292 14 315 36 q 338 58 352 103 q 365 148 365 211 q 365 306 335 355 q 304 405 250 405 q 203 405 176 360 q 150 314 150 230 z m 277 416 q 314 402 337 378 q 360 353 370 311 q 381 269 381 205 q 381 157 374 123 q 368 88 355 65 q 343 42 322 21 q 369 44 391 91 q 413 138 413 216 q 413 310 379 358 q 346 407 277 416 z"},"r":{"x_min":0,"x_max":375,"ha":375,"o":"m 203 435 l 203 360 q 241 402 261 419 q 281 435 309 435 q 333 435 350 418 q 367 400 367 374 q 367 347 352 328 q 337 310 314 310 q 304 310 292 314 q 279 318 271 324 q 266 328 261 333 q 255 337 251 339 q 247 342 242 342 q 233 342 224 335 q 215 328 203 315 l 203 79 q 203 54 210 43 q 217 32 232 30 q 247 27 284 27 l 284 0 l 22 0 l 22 27 l 35 27 q 92 27 92 72 l 92 291 q 92 347 22 368 l 22 385 l 179 435 z m 108 291 l 108 69 q 108 52 103 44 q 97 36 87 27 q 115 29 127 42 q 139 54 139 85 l 139 291 q 139 333 125 352 q 110 371 78 371 q 76 371 67 370 q 59 369 56 369 q 108 347 108 291 z m 236 360 q 249 360 262 351 q 292 327 313 327 q 338 327 350 360 q 336 353 330 353 q 315 353 301 363 q 282 378 270 378 q 258 378 236 360 z"},"2":{"x_min":0,"x_max":510,"ha":510,"o":"m 151 102 l 311 102 q 351 102 376 107 q 401 111 419 123 q 438 135 455 158 l 485 158 l 421 0 l 40 0 l 40 21 q 102 90 154 150 q 207 210 247 265 q 287 320 312 378 q 337 436 337 491 q 337 533 321 565 q 305 598 277 616 q 249 635 215 635 q 171 635 138 607 q 104 579 89 526 l 59 526 q 104 702 269 702 q 323 702 365 680 q 408 658 431 620 q 454 583 454 539 q 454 478 420 416 q 386 354 332 293 q 278 232 151 102 z m 91 36 l 75 17 l 316 17 q 368 17 389 30 q 410 43 425 79 q 402 64 382 57 q 362 50 318 50 l 134 50 q 112 50 106 48 q 100 45 91 36 z m 263 258 q 301 295 329 336 q 357 377 372 419 q 386 460 386 499 q 386 544 368 583 q 351 622 319 645 q 287 667 247 667 q 214 667 181 649 q 191 652 209 652 q 242 652 269 639 q 296 626 315 604 q 333 583 343 554 q 353 525 353 494 q 353 435 330 379 q 307 324 263 258 z"},"{":{"x_min":0,"x_max":333,"ha":333,"o":"m 208 -115 q 208 -155 234 -183 q 261 -212 310 -218 l 310 -241 q 241 -241 193 -216 q 145 -191 121 -153 q 97 -114 97 -75 q 97 -52 112 6 q 126 63 126 93 q 126 137 100 168 q 74 199 24 207 l 24 240 q 57 245 80 261 q 103 277 115 301 q 126 324 126 354 q 126 371 122 395 q 117 418 110 447 q 103 475 100 490 q 97 505 97 519 q 97 562 121 600 q 146 639 194 664 q 243 688 310 688 l 310 665 q 260 659 234 631 q 208 602 208 563 q 208 543 213 518 q 218 492 223 471 q 228 451 231 434 q 234 417 234 401 q 234 349 203 307 q 172 265 129 247 q 107 238 96 233 q 84 229 77 226 q 69 224 65 224 q 147 199 191 156 q 234 114 234 47 q 234 31 231 15 q 228 0 220 -34 q 213 -68 210 -82 q 208 -95 208 -115 z m 147 518 q 147 616 258 667 q 210 656 177 633 q 144 611 128 582 q 113 552 113 521 q 113 508 117 488 q 122 467 128 446 q 133 425 138 400 q 142 375 142 356 q 142 324 130 297 q 117 270 94 253 q 133 271 153 301 q 173 331 173 368 q 173 386 169 404 q 166 421 161 440 q 156 458 152 480 q 147 502 147 518 z m 173 79 q 173 104 164 125 q 155 146 137 164 q 120 182 94 194 q 142 160 142 92 q 142 73 138 48 q 133 23 128 4 q 123 -15 118 -38 q 113 -61 113 -74 q 113 -122 149 -162 q 185 -203 258 -220 q 147 -167 147 -71 q 147 -54 149 -43 q 151 -32 159 -2 q 167 27 170 44 q 173 61 173 79 z"},"9":{"x_min":0,"x_max":510,"ha":510,"o":"m 102 -13 l 102 14 q 168 28 216 62 q 263 97 294 154 q 325 211 344 292 q 315 270 286 261 q 256 252 217 252 q 162 252 117 279 q 71 306 45 355 q 19 404 19 467 q 19 536 49 590 q 79 644 131 673 q 183 702 244 702 q 296 702 340 680 q 384 658 416 616 q 447 575 465 520 q 482 465 482 397 q 482 307 450 231 q 418 156 364 100 q 309 45 241 16 q 172 -14 102 -13 z m 218 46 q 265 66 300 99 q 336 133 360 181 q 385 229 397 291 q 410 354 410 428 q 410 476 404 514 q 398 552 386 583 q 373 613 354 634 q 335 655 308 667 q 348 628 362 579 q 377 531 377 452 q 377 310 337 208 q 298 105 218 46 z m 144 474 q 144 381 174 333 q 204 284 256 284 q 305 284 333 331 q 361 377 361 466 q 361 532 346 579 q 331 627 304 651 q 278 675 246 675 q 217 675 194 653 q 170 630 157 585 q 144 540 144 474 z m 180 270 q 66 339 66 473 q 66 592 168 674 q 103 647 69 592 q 35 537 35 468 q 35 423 51 383 q 66 342 92 317 q 123 287 180 270 z"}," ":{"x_min":0,"x_max":250,"ha":250,"o":""},"I":{"x_min":0,"x_max":406,"ha":406,"o":"m 41 689 l 366 689 l 366 662 q 320 661 295 650 q 270 639 268 606 q 267 585 266 573 q 265 562 265 563 l 265 113 q 265 84 271 67 q 277 50 289 42 q 300 35 314 32 q 329 30 366 27 l 366 0 l 41 0 l 41 27 q 84 27 107 36 q 129 44 135 63 q 142 82 142 123 l 142 559 q 142 598 138 617 q 135 636 125 644 q 114 652 97 656 q 80 659 41 662 z m 158 573 l 158 87 q 158 62 149 50 q 141 39 119 27 q 151 28 170 37 q 190 47 190 79 l 190 597 q 190 630 176 647 q 163 664 122 662 q 159 643 159 588 q 159 584 159 581 q 159 577 158 573 z"},"H":{"x_min":0,"x_max":854,"ha":854,"o":"m 499 0 l 499 27 q 548 29 568 37 q 588 44 594 62 q 601 81 601 124 l 601 337 l 254 337 l 254 135 q 254 99 257 80 q 259 62 269 51 q 278 40 297 35 q 316 30 355 27 l 355 0 l 29 0 l 29 27 q 64 28 83 31 q 102 35 113 45 q 124 56 128 74 q 132 93 132 126 l 132 584 q 132 631 110 645 q 88 660 29 662 l 29 689 l 355 689 l 355 662 q 307 662 286 652 q 265 642 259 621 q 254 599 254 552 l 254 373 l 601 373 l 601 578 q 601 614 593 631 q 584 647 564 653 q 544 659 499 662 l 499 689 l 825 689 l 825 662 q 776 661 756 653 q 736 645 729 624 q 723 602 723 552 l 723 126 q 723 86 729 65 q 735 45 757 35 q 778 26 825 27 l 825 0 z m 617 587 l 617 103 q 617 67 609 52 q 601 38 582 27 l 598 27 q 625 27 636 42 q 648 57 648 90 l 648 574 q 648 619 639 641 q 630 662 596 662 l 582 662 q 603 653 610 636 q 617 620 617 587 z m 148 580 l 148 114 q 148 71 138 54 q 128 37 114 27 l 128 27 q 156 27 168 49 q 179 71 179 116 l 179 554 q 179 601 176 622 q 172 644 159 654 q 145 664 114 662 q 132 652 140 635 q 148 619 148 580 z"},"4":{"x_min":0,"x_max":510,"ha":510,"o":"m 352 231 l 352 -13 l 240 -13 l 240 231 l 17 231 l 17 263 l 329 702 l 352 702 l 352 278 l 497 278 l 497 231 z m 256 4 l 288 4 l 288 597 l 256 552 z m 62 278 l 240 278 l 240 529 z"},"~":{"x_min":0,"x_max":520,"ha":520,"o":"m 510 346 l 538 346 q 535 269 497 229 q 460 188 406 188 q 380 188 351 197 q 322 205 223 247 q 152 276 120 276 q 87 276 65 256 q 42 236 34 189 l 6 189 q 10 269 46 308 q 82 347 133 347 q 159 347 184 340 q 233 326 320 289 q 367 268 392 261 q 406 257 423 257 q 458 257 482 280 q 505 303 510 346 z"},"D":{"x_min":0,"x_max":854,"ha":854,"o":"m 438 0 l 51 0 l 51 27 q 92 28 112 34 q 133 41 141 57 q 150 74 150 106 l 150 597 q 150 633 126 646 q 103 659 51 662 l 51 689 l 454 689 q 533 689 599 663 q 665 637 713 590 q 760 543 786 479 q 812 414 812 340 q 812 267 785 205 q 759 143 709 97 q 659 51 590 25 q 520 0 438 0 z m 198 103 l 198 554 q 198 612 188 636 q 177 660 132 660 q 153 649 159 634 q 166 618 166 585 l 166 115 q 166 85 163 68 q 159 51 152 42 q 146 33 132 27 q 169 27 184 45 q 198 62 198 103 z m 273 521 l 273 127 q 273 84 279 65 q 285 46 307 36 q 329 27 378 27 q 431 27 473 38 q 515 49 553 76 q 598 108 624 146 q 649 183 660 231 q 672 278 672 337 q 672 511 570 598 q 529 633 480 647 q 431 662 364 662 q 318 662 299 649 q 280 635 277 610 q 273 585 273 521 z m 501 27 q 563 33 613 70 q 663 106 692 174 q 721 241 721 335 q 721 402 707 458 q 693 514 667 555 q 640 597 601 622 q 579 637 554 645 q 530 653 501 658 q 688 584 688 332 q 688 256 668 198 q 648 139 606 96 q 564 54 501 27 z"},"^":{"x_min":0,"x_max":581,"ha":581,"o":"m 72 325 l 272 676 l 312 676 l 510 325 l 432 325 l 288 575 l 146 325 z"},"0":{"x_min":0,"x_max":510,"ha":510,"o":"m 25 339 q 25 452 53 533 q 81 615 134 659 q 187 702 256 702 q 311 702 354 678 q 396 653 427 606 q 458 559 473 493 q 489 427 489 343 q 489 233 460 153 q 432 72 379 29 q 327 -13 256 -13 q 203 -13 160 12 q 117 37 86 83 q 56 130 41 195 q 25 259 25 339 z m 180 668 q 133 643 102 598 q 71 553 56 489 q 41 424 41 338 q 41 277 50 227 q 58 176 76 135 q 93 95 119 66 q 145 38 180 18 q 73 137 73 339 q 73 446 100 528 q 126 610 180 668 z m 151 350 q 151 234 161 161 q 171 87 195 51 q 218 14 257 14 q 296 14 320 51 q 344 88 355 161 q 366 235 366 347 q 366 516 340 595 q 313 675 254 675 q 202 675 177 594 q 151 513 151 350 z m 311 671 q 338 646 354 609 q 369 571 375 510 q 382 449 382 350 q 382 256 376 196 q 371 135 357 94 q 344 52 320 24 q 375 61 396 135 q 417 208 417 337 q 417 409 412 460 q 407 511 394 552 q 381 593 361 622 q 341 651 311 671 z"},"F":{"x_min":0,"x_max":677,"ha":677,"o":"m 32 689 l 601 689 l 661 531 l 625 531 q 596 564 560 592 q 523 619 488 635 q 453 652 422 657 q 394 662 364 662 q 314 662 294 653 q 273 643 268 619 q 262 595 262 537 l 262 369 l 351 369 q 418 369 453 399 q 487 429 489 491 l 524 491 l 524 230 l 489 230 q 484 279 471 302 q 458 326 429 334 q 401 342 347 342 l 262 342 l 262 103 q 262 61 286 44 q 310 27 369 27 l 382 27 l 382 0 l 35 0 l 35 27 q 83 28 104 37 q 126 45 133 65 q 140 84 140 125 l 140 552 l 140 575 q 140 622 123 643 q 105 663 45 663 q 42 663 39 663 q 36 663 32 662 z m 601 581 l 553 662 l 462 662 q 492 652 516 640 q 539 628 556 616 q 573 604 601 581 z m 485 308 l 485 411 q 475 391 460 380 q 445 370 415 359 q 444 352 461 340 q 477 329 485 308 z m 187 90 l 187 550 q 187 600 184 623 q 181 645 166 655 q 151 666 117 662 q 143 653 149 636 q 156 619 156 570 l 156 113 q 156 83 154 68 q 151 53 145 45 q 138 36 121 27 q 157 26 172 41 q 187 55 187 90 z"},"`":{"x_min":0,"x_max":333,"ha":333,"o":"m 273 501 l 241 501 l 63 652 l 212 652 z m 231 529 l 185 625 l 117 625 z"},"k":{"x_min":0,"x_max":521,"ha":521,"o":"m 252 0 l 26 0 l 26 27 l 33 27 q 60 27 72 36 q 83 44 85 57 q 87 69 87 94 l 87 542 q 87 579 74 600 q 62 622 26 633 l 26 652 l 181 704 l 200 704 l 200 200 q 315 311 315 355 q 315 373 302 384 q 288 396 260 399 l 260 427 l 468 427 l 468 399 q 463 398 454 396 q 445 393 435 389 q 425 386 414 379 q 403 372 389 358 q 365 333 363 330 l 331 289 l 412 134 q 438 86 458 61 q 479 36 504 27 l 504 0 l 296 0 l 296 27 q 329 31 329 50 q 329 56 326 62 q 322 69 312 87 l 247 208 l 200 163 l 200 69 q 200 28 252 27 z m 392 400 l 306 400 q 331 382 331 356 q 331 346 325 331 q 364 382 392 400 z m 353 114 l 283 244 l 260 221 l 331 84 q 334 78 337 73 q 340 68 343 62 q 345 57 345 51 q 345 40 331 27 q 352 27 362 37 q 373 46 373 61 q 373 76 353 114 z m 136 80 l 136 534 q 136 577 131 599 q 126 621 107 632 q 89 643 48 641 q 81 627 92 605 q 103 583 103 545 l 103 84 q 103 60 99 48 q 95 35 81 24 q 136 25 136 80 z"},"u":{"x_min":0,"x_max":573,"ha":573,"o":"m 312 398 l 312 427 l 487 427 l 487 94 q 487 74 494 64 q 501 55 514 52 q 527 49 549 49 l 553 49 l 553 21 l 375 -13 l 375 54 q 294 -13 215 -13 q 152 -13 115 24 q 78 61 78 129 l 78 299 q 78 337 76 353 q 73 369 59 381 q 45 393 12 398 l 12 427 l 191 427 l 191 138 q 191 101 198 78 q 204 55 219 44 q 235 32 260 32 q 314 32 375 86 l 375 320 q 375 394 312 398 z m 423 63 l 423 325 q 423 359 414 380 q 404 400 373 400 q 372 400 366 399 q 359 398 358 398 q 377 386 384 367 q 391 349 391 321 l 391 11 q 408 17 416 29 q 423 40 423 63 z m 127 119 l 127 339 q 127 400 79 400 q 78 400 71 399 q 63 398 62 398 q 83 382 88 364 q 94 346 94 319 l 94 138 q 94 74 125 37 q 156 1 210 1 q 226 1 240 3 q 185 7 156 37 q 127 67 127 119 z"},"]":{"x_min":0,"x_max":323,"ha":323,"o":"m 246 689 l 246 -230 l 22 -230 l 22 -203 l 80 -203 q 116 -203 125 -190 q 134 -177 134 -151 l 134 610 q 134 637 125 649 q 116 662 80 662 l 22 662 l 22 689 z m 150 598 l 150 -138 q 150 -166 146 -178 q 143 -190 128 -203 q 158 -202 170 -189 q 182 -177 182 -143 l 182 586 q 182 616 179 631 q 175 646 164 654 q 152 662 128 662 q 142 650 146 637 q 150 624 150 598 z"},"U":{"x_min":0,"x_max":813,"ha":813,"o":"m 134 210 l 134 582 q 134 619 123 635 q 112 650 92 654 q 71 658 25 662 l 25 689 l 356 689 l 356 662 q 317 660 297 655 q 278 650 267 635 q 257 620 257 587 l 257 199 q 257 146 281 106 q 305 67 350 47 q 394 27 453 27 q 515 27 562 50 q 608 73 635 119 q 661 166 661 231 l 661 456 q 661 532 650 576 q 639 619 612 639 q 586 660 538 662 l 538 689 l 789 689 l 789 662 q 746 656 724 632 q 703 607 695 568 q 688 528 688 469 l 688 217 q 688 165 669 122 q 649 79 613 49 q 576 18 525 2 q 473 -13 407 -13 q 250 -13 175 75 q 152 104 143 135 q 134 166 134 210 z m 182 207 l 182 597 q 182 669 113 662 q 150 647 150 592 l 150 202 q 150 119 199 72 q 248 24 345 3 q 308 19 281 34 q 255 50 232 73 q 209 96 196 129 q 182 163 182 207 z m 704 662 l 604 662 q 649 642 661 585 q 667 613 677 631 q 686 650 704 662 z"},"o":{"x_min":0,"x_max":500,"ha":500,"o":"m 30 210 q 30 272 59 324 q 89 376 140 406 q 191 435 253 435 q 313 435 364 406 q 414 377 442 327 q 471 276 471 214 q 471 167 454 124 q 437 82 406 52 q 375 21 336 4 q 296 -12 251 -12 q 190 -12 139 16 q 89 43 59 94 q 30 145 30 210 z m 203 7 q 140 45 108 98 q 76 151 76 214 q 76 262 91 298 q 106 334 131 360 q 156 386 193 414 q 144 396 110 365 q 77 333 62 292 q 46 251 46 206 q 46 173 56 141 q 66 108 86 83 q 106 57 135 37 q 165 18 203 7 z m 151 238 q 151 134 181 74 q 211 15 260 15 q 284 15 305 35 q 326 56 339 95 q 351 135 351 193 q 351 294 324 351 q 297 408 249 408 q 203 408 177 365 q 151 323 151 238 z m 323 32 q 360 52 379 96 q 399 139 399 202 q 399 357 303 405 q 337 371 352 321 q 367 271 367 187 q 367 134 356 98 q 345 62 323 32 z"},"N":{"x_min":0,"x_max":802,"ha":802,"o":"m 524 662 l 524 689 l 785 689 l 785 662 q 752 661 728 647 q 703 634 689 608 q 675 582 675 545 l 684 -15 l 654 -15 l 155 568 l 162 176 q 163 139 168 114 q 173 89 186 70 q 198 52 222 41 q 246 30 283 27 l 283 0 l 24 0 l 24 27 q 75 31 99 54 q 124 78 130 113 q 136 147 134 200 l 127 600 q 99 630 73 646 q 46 662 18 662 l 12 662 l 12 689 l 214 689 l 654 176 l 647 519 q 647 559 639 586 q 631 614 612 631 q 598 645 573 654 q 547 663 524 662 z m 695 662 l 588 662 q 612 654 628 639 q 643 625 654 599 q 665 643 695 662 z m 618 103 l 178 616 q 165 634 146 648 q 127 662 93 662 l 71 662 q 98 652 113 638 q 128 625 156 592 l 657 8 q 657 22 656 35 q 655 49 653 55 q 650 62 644 72 q 637 82 618 103 z m 84 27 l 187 27 q 166 43 156 58 q 147 72 141 97 q 135 74 122 57 q 108 41 84 27 z"},"+":{"x_min":0,"x_max":570,"ha":570,"o":"m 20 363 l 254 363 l 254 598 l 318 598 l 318 363 l 553 363 l 553 299 l 318 299 l 318 66 l 254 66 l 254 299 l 20 299 z"},"G":{"x_min":0,"x_max":792,"ha":792,"o":"m 673 698 l 681 483 l 655 483 q 632 529 604 565 q 576 601 545 624 q 515 647 482 659 q 449 670 413 670 q 346 670 293 628 q 240 587 211 513 q 182 439 182 344 q 182 250 214 175 q 246 101 301 60 q 355 19 419 19 q 457 19 489 34 q 521 48 538 72 q 551 90 555 111 q 559 132 559 163 q 559 212 554 232 q 549 252 529 260 q 510 268 462 272 l 462 300 l 779 300 l 779 272 q 730 268 712 260 q 693 253 687 233 q 680 213 680 166 l 680 57 q 640 36 593 20 q 546 4 499 -4 q 451 -13 405 -13 q 319 -13 250 14 q 182 42 135 91 q 88 140 64 205 q 40 269 40 340 q 40 409 64 475 q 87 541 132 592 q 176 643 239 673 q 301 702 376 702 q 426 702 492 688 q 558 674 574 674 q 620 674 637 698 z m 626 567 l 619 656 q 597 647 583 647 q 572 647 563 648 q 555 649 544 652 q 533 655 529 656 q 579 625 626 567 z m 575 198 l 575 134 q 575 104 560 75 q 544 46 509 27 q 547 35 569 51 q 590 66 599 90 q 608 115 608 154 q 608 202 604 223 q 601 245 586 257 q 571 269 538 272 q 556 259 566 243 q 575 228 575 198 z m 336 4 q 288 25 254 46 q 220 67 185 104 q 139 154 113 217 q 88 280 88 343 q 88 416 120 489 q 153 563 209 616 q 237 642 261 656 q 286 670 320 685 q 285 678 264 670 q 222 653 184 621 q 147 589 117 544 q 87 498 72 447 q 56 396 56 342 q 56 273 82 207 q 107 140 153 94 q 181 67 209 50 q 238 33 266 24 q 293 14 336 4 z"},"q":{"x_min":0,"x_max":552,"ha":552,"o":"m 479 435 l 479 -154 q 479 -173 483 -186 q 486 -199 495 -204 q 503 -210 515 -211 q 527 -213 544 -213 l 544 -240 l 303 -240 l 303 -213 q 342 -213 354 -202 q 367 -191 367 -158 l 367 36 q 338 14 299 0 q 260 -13 224 -13 q 182 -13 147 1 q 112 16 87 44 q 61 73 48 112 q 34 151 34 197 q 34 265 62 319 q 89 373 140 404 q 191 435 255 435 q 327 435 393 397 q 421 406 457 435 z m 383 290 l 383 -155 q 383 -182 379 -193 q 375 -204 363 -213 q 391 -211 403 -198 q 415 -184 415 -157 l 415 270 q 415 318 398 345 q 382 372 348 387 q 368 367 375 346 q 383 324 383 290 z m 272 9 q 242 8 218 12 q 195 17 172 30 q 149 43 127 71 q 112 89 102 109 q 92 129 87 151 q 82 172 82 198 q 82 246 97 288 q 112 329 143 363 q 173 397 222 421 q 184 412 163 401 q 113 375 81 320 q 50 264 50 197 q 50 142 72 98 q 93 55 133 29 q 173 4 225 4 q 242 4 272 9 z m 367 70 l 367 294 q 367 321 359 343 q 351 365 339 379 q 326 393 309 401 q 292 408 274 408 q 240 408 213 386 q 186 365 170 322 q 154 279 154 216 q 154 128 187 79 q 219 31 272 31 q 321 31 367 70 z"},"d":{"x_min":0,"x_max":552,"ha":552,"o":"m 303 647 l 454 697 l 474 697 l 474 88 q 474 62 488 53 q 502 44 536 44 l 536 18 l 363 -13 l 363 44 q 292 -13 219 -13 q 179 -13 144 4 q 108 21 83 52 q 58 83 44 123 q 31 164 31 208 q 31 272 61 324 q 92 376 144 406 q 196 435 260 435 q 305 435 363 414 l 363 534 q 363 574 353 593 q 343 611 303 627 z m 342 634 l 325 634 q 362 618 370 599 q 379 580 379 549 l 379 11 q 395 18 403 27 q 410 37 410 55 l 410 548 q 410 592 397 613 q 384 634 342 634 z m 363 79 l 363 365 q 346 386 323 397 q 300 408 277 408 q 242 408 213 387 q 184 366 167 323 q 150 280 150 217 q 150 163 165 124 q 180 84 208 64 q 235 44 270 44 q 320 44 363 79 z m 209 412 q 168 403 140 385 q 98 358 72 309 q 47 260 47 204 q 47 150 69 104 q 91 58 132 31 q 172 4 222 4 q 256 4 283 14 q 261 12 255 12 q 223 12 191 25 q 160 39 134 64 q 108 90 93 125 q 78 161 78 203 q 78 333 209 412 z"},"1":{"x_min":0,"x_max":427,"ha":427,"o":"m 272 702 l 272 131 q 272 98 274 81 q 276 65 283 54 q 291 42 308 37 q 326 31 358 27 l 358 0 l 74 0 l 74 27 q 109 29 126 37 q 144 44 152 60 q 160 76 160 105 l 160 119 l 160 525 q 160 563 139 577 q 118 590 74 594 l 74 630 q 142 633 180 651 q 219 669 246 702 z m 176 511 l 176 128 q 176 75 167 58 q 159 41 135 27 q 182 29 195 49 q 208 70 208 113 l 208 528 q 208 567 191 588 q 174 608 147 608 q 140 608 130 606 q 121 604 117 604 q 155 596 165 574 q 176 553 176 511 z"},"5":{"x_min":0,"x_max":510,"ha":510,"o":"m 436 702 l 436 691 q 436 642 428 612 q 420 583 399 567 q 377 552 339 552 q 332 552 298 554 q 265 556 233 556 q 192 556 159 551 l 149 436 q 179 438 188 438 q 246 438 294 422 q 343 406 378 376 q 413 346 432 305 q 450 265 450 215 q 450 153 419 100 q 388 47 332 17 q 277 -13 207 -13 q 162 -13 127 0 q 93 13 75 35 q 57 57 57 80 q 57 99 71 113 q 85 127 104 127 q 118 127 132 118 q 146 109 153 97 q 177 52 193 36 q 208 19 240 19 q 289 19 324 58 q 359 97 359 155 q 359 230 305 277 q 251 323 169 323 q 154 323 138 322 q 122 320 113 319 l 134 659 q 173 666 224 666 q 250 666 287 665 q 324 664 334 664 q 366 664 380 666 q 395 668 403 677 q 411 685 411 702 z m 159 601 l 159 570 q 181 573 213 573 q 241 573 277 571 q 313 569 328 569 q 368 569 384 580 q 399 592 403 617 q 369 602 325 602 q 312 603 296 603 q 280 604 267 604 q 255 604 247 605 q 238 605 222 605 q 179 605 159 601 z m 144 368 l 144 340 l 163 340 q 213 340 253 325 q 293 311 320 286 q 346 260 361 227 q 375 193 375 157 q 375 102 337 47 q 398 109 398 181 q 398 233 368 277 q 338 320 286 345 q 234 370 175 370 q 160 370 144 368 z m 130 100 q 116 110 102 110 q 89 110 81 101 q 73 92 73 78 q 73 35 144 9 q 123 30 113 44 q 104 58 104 70 q 104 81 111 88 q 117 96 130 100 z"}}}
